Cutive-Regular-OTF.ufo
<glyph name="exclam" format="1">
  <advance width="728"/>
  <unicode hex="0021"/>
  <outline>
    <contour>
      <point x="502" y="1587" type="curve" smooth="yes"/>
      <point x="502" y="1249"/>
      <point x="428" y="917"/>
      <point x="428" y="557" type="curve" smooth="yes"/>
      <point x="428" y="523"/>
      <point x="400" y="496"/>
      <point x="367" y="496" type="curve" smooth="yes"/>
      <point x="333" y="496"/>
      <point x="305" y="523"/>
      <point x="305" y="557" type="curve" smooth="yes"/>
      <point x="305" y="920"/>
      <point x="231" y="1249"/>
      <point x="231" y="1591" type="curve" smooth="yes"/>
      <point x="231" y="1685"/>
      <point x="288" y="1739"/>
      <point x="367" y="1739" type="curve" smooth="yes"/>
      <point x="448" y="1739"/>
      <point x="502" y="1685"/>
    </contour>
    <contour>
      <point x="365" y="-25" type="curve" smooth="yes"/>
      <point x="265" y="-25"/>
      <point x="188" y="52"/>
      <point x="188" y="152" type="curve" smooth="yes"/>
      <point x="188" y="252"/>
      <point x="265" y="328"/>
      <point x="365" y="328" type="curve" smooth="yes"/>
      <point x="465" y="328"/>
      <point x="541" y="252"/>
      <point x="541" y="152" type="curve" smooth="yes"/>
      <point x="541" y="52"/>
      <point x="465" y="-25"/>
    </contour>
  </outline>
</glyph>
<glyph name="period" format="1">
  <advance width="806"/>
  <unicode hex="002E"/>
  <outline>
    <contour>
      <point x="403" y="-127" type="curve" smooth="yes"/>
      <point x="281" y="-127"/>
      <point x="192" y="-37"/>
      <point x="192" y="84" type="curve" smooth="yes"/>
      <point x="192" y="206"/>
      <point x="282" y="295"/>
      <point x="403" y="295" type="curve" smooth="yes"/>
      <point x="525" y="295"/>
      <point x="614" y="205"/>
      <point x="614" y="84" type="curve" smooth="yes"/>
      <point x="614" y="-38"/>
      <point x="524" y="-127"/>
    </contour>
  </outline>
</glyph>
<glyph name="A" format="1">
  <advance width="1964"/>
  <unicode hex="0041"/>
  <outline>
    <contour>
      <point x="0" y="84" type="curve" smooth="yes"/>
      <point x="0" y="134"/>
      <point x="21" y="176"/>
      <point x="72" y="176" type="curve" smooth="yes"/>
      <point x="211" y="176" type="line"/>
      <point x="873" y="1671" type="line" smooth="yes"/>
      <point x="893" y="1718"/>
      <point x="932" y="1763"/>
      <point x="996" y="1763" type="curve" smooth="yes"/>
      <point x="1063" y="1763"/>
      <point x="1094" y="1717"/>
      <point x="1114" y="1667" type="curve" smooth="yes"/>
      <point x="1715" y="176" type="line"/>
      <point x="1893" y="176" type="line" smooth="yes"/>
      <point x="1944" y="176"/>
      <point x="1964" y="134"/>
      <point x="1964" y="84" type="curve" smooth="yes"/>
      <point x="1964" y="40"/>
      <point x="1938" y="0"/>
      <point x="1891" y="0" type="curve" smooth="yes"/>
      <point x="1246" y="0" type="line" smooth="yes"/>
      <point x="1199" y="0"/>
      <point x="1172" y="40"/>
      <point x="1172" y="84" type="curve" smooth="yes"/>
      <point x="1172" y="134"/>
      <point x="1193" y="176"/>
      <point x="1244" y="176" type="curve" smooth="yes"/>
      <point x="1463" y="176" type="line"/>
      <point x="1315" y="567" type="line"/>
      <point x="590" y="567" type="line"/>
      <point x="433" y="176" type="line"/>
      <point x="619" y="176" type="line" smooth="yes"/>
      <point x="670" y="176"/>
      <point x="691" y="134"/>
      <point x="691" y="84" type="curve" smooth="yes"/>
      <point x="691" y="40"/>
      <point x="664" y="0"/>
      <point x="617" y="0" type="curve" smooth="yes"/>
      <point x="74" y="0" type="line" smooth="yes"/>
      <point x="27" y="0"/>
      <point x="0" y="40"/>
    </contour>
    <contour>
      <point x="652" y="721" type="line"/>
      <point x="1258" y="721" type="line"/>
      <point x="965" y="1499" type="line"/>
    </contour>
  </outline>
</glyph>
<glyph name="B" format="1">
  <advance width="1821"/>
  <unicode hex="0042"/>
  <outline>
    <contour>
      <point x="1751" y="510" type="curve" smooth="yes"/>
      <point x="1751" y="145"/>
      <point x="1383" y="0"/>
      <point x="1017" y="0" type="curve" smooth="yes"/>
      <point x="110" y="0" type="line" smooth="yes"/>
      <point x="63" y="0"/>
      <point x="36" y="40"/>
      <point x="36" y="84" type="curve" smooth="yes"/>
      <point x="36" y="134"/>
      <point x="57" y="176"/>
      <point x="108" y="176" type="curve" smooth="yes"/>
      <point x="372" y="176" type="line"/>
      <point x="372" y="1538" type="line"/>
      <point x="159" y="1538" type="line" smooth="yes"/>
      <point x="112" y="1538"/>
      <point x="86" y="1578"/>
      <point x="86" y="1622" type="curve" smooth="yes"/>
      <point x="86" y="1672"/>
      <point x="106" y="1714"/>
      <point x="157" y="1714" type="curve" smooth="yes"/>
      <point x="974" y="1714" type="line" smooth="yes"/>
      <point x="1304" y="1714"/>
      <point x="1582" y="1615"/>
      <point x="1582" y="1279" type="curve" smooth="yes"/>
      <point x="1582" y="1111"/>
      <point x="1472" y="1002"/>
      <point x="1341" y="967" type="curve"/>
      <point x="1564" y="936"/>
      <point x="1751" y="803"/>
    </contour>
    <contour>
      <point x="1501" y="532" type="curve" smooth="yes"/>
      <point x="1501" y="835"/>
      <point x="1287" y="866"/>
      <point x="1056" y="866" type="curve" smooth="yes"/>
      <point x="606" y="866" type="line"/>
      <point x="606" y="176" type="line"/>
      <point x="1020" y="176" type="line" smooth="yes"/>
      <point x="1301" y="176"/>
      <point x="1501" y="262"/>
    </contour>
    <contour>
      <point x="1381" y="1267" type="curve" smooth="yes"/>
      <point x="1381" y="1472"/>
      <point x="1225" y="1538"/>
      <point x="993" y="1538" type="curve" smooth="yes"/>
      <point x="606" y="1538" type="line"/>
      <point x="606" y="995" type="line"/>
      <point x="1056" y="995" type="line" smooth="yes"/>
      <point x="1218" y="995"/>
      <point x="1381" y="1074"/>
    </contour>
  </outline>
</glyph>
<glyph name="C" format="1">
  <advance width="1802"/>
  <unicode hex="0043"/>
  <outline>
    <contour>
      <point x="1694" y="571" type="curve" smooth="yes"/>
      <point x="1694" y="249"/>
      <point x="1406" y="-25"/>
      <point x="957" y="-25" type="curve" smooth="yes"/>
      <point x="452" y="-25"/>
      <point x="77" y="330"/>
      <point x="77" y="889" type="curve" smooth="yes"/>
      <point x="77" y="1399"/>
      <point x="459" y="1739"/>
      <point x="976" y="1739" type="curve" smooth="yes"/>
      <point x="1194" y="1739"/>
      <point x="1343" y="1661"/>
      <point x="1463" y="1538" type="curve"/>
      <point x="1463" y="1642" type="line" smooth="yes"/>
      <point x="1463" y="1693"/>
      <point x="1505" y="1714"/>
      <point x="1555" y="1714" type="curve" smooth="yes"/>
      <point x="1599" y="1714"/>
      <point x="1639" y="1687"/>
      <point x="1639" y="1640" type="curve" smooth="yes"/>
      <point x="1639" y="1266" type="line" smooth="yes"/>
      <point x="1639" y="1219"/>
      <point x="1599" y="1192"/>
      <point x="1555" y="1192" type="curve" smooth="yes"/>
      <point x="1510" y="1192"/>
      <point x="1495" y="1236"/>
      <point x="1471" y="1270" type="curve"/>
      <point x="1373" y="1431"/>
      <point x="1227" y="1550"/>
      <point x="976" y="1550" type="curve" smooth="yes"/>
      <point x="580" y="1550"/>
      <point x="340" y="1268"/>
      <point x="340" y="878" type="curve" smooth="yes"/>
      <point x="340" y="439"/>
      <point x="569" y="171"/>
      <point x="976" y="171" type="curve" smooth="yes"/>
      <point x="1259" y="171"/>
      <point x="1436" y="336"/>
      <point x="1486" y="590" type="curve" smooth="yes"/>
      <point x="1496" y="638"/>
      <point x="1542" y="661"/>
      <point x="1588" y="661" type="curve" smooth="yes"/>
      <point x="1640" y="661"/>
      <point x="1694" y="630"/>
    </contour>
  </outline>
</glyph>
<glyph name="D" format="1">
  <advance width="1924"/>
  <unicode hex="0044"/>
  <outline>
    <contour>
      <point x="1605" y="866" type="curve" smooth="yes"/>
      <point x="1605" y="1297"/>
      <point x="1330" y="1538"/>
      <point x="896" y="1538" type="curve" smooth="yes"/>
      <point x="610" y="1538" type="line"/>
      <point x="610" y="176" type="line"/>
      <point x="657" y="173"/>
      <point x="702" y="172"/>
      <point x="747" y="172" type="curve" smooth="yes"/>
      <point x="1255" y="172"/>
      <point x="1605" y="346"/>
    </contour>
    <contour>
      <point x="1847" y="866" type="curve" smooth="yes"/>
      <point x="1847" y="301"/>
      <point x="1435" y="0"/>
      <point x="868" y="0" type="curve" smooth="yes"/>
      <point x="110" y="0" type="line" smooth="yes"/>
      <point x="63" y="0"/>
      <point x="36" y="40"/>
      <point x="36" y="84" type="curve" smooth="yes"/>
      <point x="36" y="134"/>
      <point x="57" y="176"/>
      <point x="108" y="176" type="curve" smooth="yes"/>
      <point x="376" y="176" type="line"/>
      <point x="376" y="1538" type="line"/>
      <point x="173" y="1538" type="line" smooth="yes"/>
      <point x="122" y="1538"/>
      <point x="102" y="1580"/>
      <point x="102" y="1630" type="curve" smooth="yes"/>
      <point x="102" y="1674"/>
      <point x="129" y="1714"/>
      <point x="176" y="1714" type="curve" smooth="yes"/>
      <point x="868" y="1714" type="line" smooth="yes"/>
      <point x="1447" y="1714"/>
      <point x="1847" y="1438"/>
    </contour>
  </outline>
</glyph>
<glyph name="E" format="1">
  <advance width="1881"/>
  <unicode hex="0045"/>
  <outline>
    <contour>
      <point x="1161" y="649" type="line"/>
      <point x="1161" y="602"/>
      <point x="1136" y="569"/>
      <point x="1091" y="569" type="curve" smooth="yes"/>
      <point x="1049" y="569"/>
      <point x="1022" y="600"/>
      <point x="1011" y="637" type="curve" smooth="yes"/>
      <point x="960" y="823" type="line"/>
      <point x="626" y="823" type="line"/>
      <point x="626" y="176" type="line"/>
      <point x="1509" y="176" type="line"/>
      <point x="1625" y="506" type="line"/>
      <point x="1644" y="548"/>
      <point x="1676" y="582"/>
      <point x="1728" y="582" type="curve" smooth="yes"/>
      <point x="1772" y="582"/>
      <point x="1801" y="554"/>
      <point x="1801" y="508" type="curve" smooth="yes"/>
      <point x="1801" y="494"/>
      <point x="1799" y="481"/>
      <point x="1795" y="469" type="curve"/>
      <point x="1732" y="78" type="line"/>
      <point x="1718" y="30"/>
      <point x="1698" y="0"/>
      <point x="1650" y="0" type="curve" smooth="yes"/>
      <point x="110" y="0" type="line" smooth="yes"/>
      <point x="63" y="0"/>
      <point x="36" y="40"/>
      <point x="36" y="84" type="curve" smooth="yes"/>
      <point x="36" y="134"/>
      <point x="57" y="176"/>
      <point x="108" y="176" type="curve" smooth="yes"/>
      <point x="393" y="176" type="line"/>
      <point x="393" y="1538" type="line"/>
      <point x="210" y="1538" type="line" smooth="yes"/>
      <point x="159" y="1538"/>
      <point x="139" y="1580"/>
      <point x="139" y="1630" type="curve" smooth="yes"/>
      <point x="139" y="1674"/>
      <point x="165" y="1714"/>
      <point x="212" y="1714" type="curve" smooth="yes"/>
      <point x="1609" y="1714" type="line" smooth="yes"/>
      <point x="1657" y="1714"/>
      <point x="1675" y="1683"/>
      <point x="1691" y="1636" type="curve"/>
      <point x="1787" y="1319" type="line" smooth="yes"/>
      <point x="1791" y="1304"/>
      <point x="1793" y="1291"/>
      <point x="1793" y="1280" type="curve" smooth="yes"/>
      <point x="1793" y="1236"/>
      <point x="1763" y="1206"/>
      <point x="1720" y="1206" type="curve" smooth="yes"/>
      <point x="1670" y="1206"/>
      <point x="1634" y="1240"/>
      <point x="1617" y="1282" type="curve" smooth="yes"/>
      <point x="1509" y="1538" type="line"/>
      <point x="626" y="1538" type="line"/>
      <point x="626" y="967" type="line"/>
      <point x="960" y="967" type="line"/>
      <point x="1011" y="1153" type="line" smooth="yes"/>
      <point x="1022" y="1190"/>
      <point x="1049" y="1221"/>
      <point x="1091" y="1221" type="curve" smooth="yes"/>
      <point x="1136" y="1221"/>
      <point x="1161" y="1188"/>
      <point x="1161" y="1141" type="curve"/>
      <point x="1146" y="899" type="line"/>
    </contour>
  </outline>
</glyph>
<glyph name="F" format="1">
  <advance width="1782"/>
  <unicode hex="0046"/>
  <outline>
    <contour>
      <point x="970" y="0" type="line" smooth="yes"/>
      <point x="1017" y="0"/>
      <point x="1044" y="40"/>
      <point x="1044" y="84" type="curve" smooth="yes"/>
      <point x="1044" y="134"/>
      <point x="1023" y="176"/>
      <point x="972" y="176" type="curve" smooth="yes"/>
      <point x="667" y="176" type="line"/>
      <point x="667" y="784" type="line"/>
      <point x="1007" y="784" type="line"/>
      <point x="1058" y="598" type="line" smooth="yes"/>
      <point x="1069" y="561"/>
      <point x="1096" y="530"/>
      <point x="1138" y="530" type="curve" smooth="yes"/>
      <point x="1183" y="530"/>
      <point x="1208" y="563"/>
      <point x="1208" y="610" type="curve"/>
      <point x="1194" y="860" type="line"/>
      <point x="1208" y="1102" type="line"/>
      <point x="1208" y="1149"/>
      <point x="1183" y="1182"/>
      <point x="1138" y="1182" type="curve" smooth="yes"/>
      <point x="1096" y="1182"/>
      <point x="1069" y="1151"/>
      <point x="1058" y="1114" type="curve" smooth="yes"/>
      <point x="1007" y="928" type="line"/>
      <point x="667" y="928" type="line"/>
      <point x="667" y="1538" type="line"/>
      <point x="1542" y="1538" type="line"/>
      <point x="1630" y="1282" type="line"/>
      <point x="1647" y="1240"/>
      <point x="1682" y="1206"/>
      <point x="1732" y="1206" type="curve" smooth="yes"/>
      <point x="1775" y="1206"/>
      <point x="1806" y="1236"/>
      <point x="1806" y="1280" type="curve" smooth="yes"/>
      <point x="1806" y="1291"/>
      <point x="1804" y="1304"/>
      <point x="1800" y="1319" type="curve" smooth="yes"/>
      <point x="1724" y="1636" type="line"/>
      <point x="1708" y="1683"/>
      <point x="1690" y="1714"/>
      <point x="1642" y="1714" type="curve" smooth="yes"/>
      <point x="192" y="1714" type="line" smooth="yes"/>
      <point x="145" y="1714"/>
      <point x="118" y="1674"/>
      <point x="118" y="1630" type="curve" smooth="yes"/>
      <point x="118" y="1580"/>
      <point x="139" y="1538"/>
      <point x="190" y="1538" type="curve" smooth="yes"/>
      <point x="434" y="1538" type="line"/>
      <point x="434" y="176" type="line"/>
      <point x="108" y="176" type="line" smooth="yes"/>
      <point x="57" y="176"/>
      <point x="36" y="134"/>
      <point x="36" y="84" type="curve" smooth="yes"/>
      <point x="36" y="40"/>
      <point x="63" y="0"/>
      <point x="110" y="0" type="curve" smooth="yes"/>
    </contour>
  </outline>
</glyph>
<glyph name="G" format="1">
  <advance width="1988"/>
  <unicode hex="0047"/>
  <outline>
    <contour>
      <point x="974" y="164" type="curve" smooth="yes"/>
      <point x="1288" y="164"/>
      <point x="1578" y="252"/>
      <point x="1578" y="569" type="curve" smooth="yes"/>
      <point x="1578" y="696" type="line"/>
      <point x="1426" y="696" type="line" smooth="yes"/>
      <point x="1379" y="696"/>
      <point x="1353" y="736"/>
      <point x="1353" y="780" type="curve" smooth="yes"/>
      <point x="1353" y="830"/>
      <point x="1373" y="872"/>
      <point x="1424" y="872" type="curve" smooth="yes"/>
      <point x="1840" y="872" type="line" smooth="yes"/>
      <point x="1891" y="872"/>
      <point x="1912" y="830"/>
      <point x="1912" y="780" type="curve" smooth="yes"/>
      <point x="1912" y="736"/>
      <point x="1885" y="696"/>
      <point x="1838" y="696" type="curve" smooth="yes"/>
      <point x="1754" y="696" type="line"/>
      <point x="1754" y="72" type="line" smooth="yes"/>
      <point x="1754" y="21"/>
      <point x="1712" y="0"/>
      <point x="1662" y="0" type="curve" smooth="yes"/>
      <point x="1618" y="0"/>
      <point x="1578" y="27"/>
      <point x="1578" y="74" type="curve" smooth="yes"/>
      <point x="1578" y="197" type="line"/>
      <point x="1462" y="38"/>
      <point x="1245" y="-25"/>
      <point x="974" y="-25" type="curve" smooth="yes"/>
      <point x="445" y="-25"/>
      <point x="77" y="319"/>
      <point x="77" y="850" type="curve" smooth="yes"/>
      <point x="77" y="1387"/>
      <point x="458" y="1739"/>
      <point x="994" y="1739" type="curve" smooth="yes"/>
      <point x="1236" y="1739"/>
      <point x="1403" y="1664"/>
      <point x="1543" y="1538" type="curve"/>
      <point x="1543" y="1642" type="line" smooth="yes"/>
      <point x="1543" y="1693"/>
      <point x="1585" y="1714"/>
      <point x="1635" y="1714" type="curve" smooth="yes"/>
      <point x="1679" y="1714"/>
      <point x="1719" y="1687"/>
      <point x="1719" y="1640" type="curve" smooth="yes"/>
      <point x="1719" y="1266" type="line" smooth="yes"/>
      <point x="1719" y="1219"/>
      <point x="1679" y="1192"/>
      <point x="1635" y="1192" type="curve" smooth="yes"/>
      <point x="1589" y="1192"/>
      <point x="1573" y="1236"/>
      <point x="1551" y="1270" type="curve"/>
      <point x="1428" y="1443"/>
      <point x="1256" y="1550"/>
      <point x="994" y="1550" type="curve" smooth="yes"/>
      <point x="583" y="1550"/>
      <point x="339" y="1262"/>
      <point x="339" y="850" type="curve" smooth="yes"/>
      <point x="339" y="444"/>
      <point x="572" y="164"/>
    </contour>
  </outline>
</glyph>
<glyph name="H" format="1">
  <advance width="2020"/>
  <unicode hex="0048"/>
  <outline>
    <contour>
      <point x="36" y="84" type="curve" smooth="yes"/>
      <point x="36" y="134"/>
      <point x="57" y="176"/>
      <point x="108" y="176" type="curve" smooth="yes"/>
      <point x="331" y="176" type="line"/>
      <point x="331" y="1538" type="line"/>
      <point x="129" y="1538" type="line" smooth="yes"/>
      <point x="78" y="1538"/>
      <point x="57" y="1580"/>
      <point x="57" y="1630" type="curve" smooth="yes"/>
      <point x="57" y="1674"/>
      <point x="84" y="1714"/>
      <point x="131" y="1714" type="curve" smooth="yes"/>
      <point x="766" y="1714" type="line" smooth="yes"/>
      <point x="813" y="1714"/>
      <point x="839" y="1674"/>
      <point x="839" y="1630" type="curve" smooth="yes"/>
      <point x="839" y="1580"/>
      <point x="819" y="1538"/>
      <point x="768" y="1538" type="curve" smooth="yes"/>
      <point x="565" y="1538" type="line"/>
      <point x="565" y="963" type="line"/>
      <point x="1497" y="963" type="line"/>
      <point x="1497" y="1538" type="line"/>
      <point x="1294" y="1538" type="line" smooth="yes"/>
      <point x="1243" y="1538"/>
      <point x="1222" y="1580"/>
      <point x="1222" y="1630" type="curve" smooth="yes"/>
      <point x="1222" y="1674"/>
      <point x="1249" y="1714"/>
      <point x="1296" y="1714" type="curve" smooth="yes"/>
      <point x="1910" y="1714" type="line" smooth="yes"/>
      <point x="1957" y="1714"/>
      <point x="1984" y="1674"/>
      <point x="1984" y="1630" type="curve" smooth="yes"/>
      <point x="1984" y="1580"/>
      <point x="1963" y="1538"/>
      <point x="1912" y="1538" type="curve" smooth="yes"/>
      <point x="1730" y="1538" type="line"/>
      <point x="1730" y="176" type="line"/>
      <point x="1912" y="176" type="line" smooth="yes"/>
      <point x="1963" y="176"/>
      <point x="1984" y="134"/>
      <point x="1984" y="84" type="curve" smooth="yes"/>
      <point x="1984" y="40"/>
      <point x="1957" y="0"/>
      <point x="1910" y="0" type="curve" smooth="yes"/>
      <point x="1296" y="0" type="line" smooth="yes"/>
      <point x="1249" y="0"/>
      <point x="1222" y="40"/>
      <point x="1222" y="84" type="curve" smooth="yes"/>
      <point x="1222" y="134"/>
      <point x="1243" y="176"/>
      <point x="1294" y="176" type="curve" smooth="yes"/>
      <point x="1497" y="176" type="line"/>
      <point x="1497" y="788" type="line"/>
      <point x="565" y="788" type="line"/>
      <point x="565" y="176" type="line"/>
      <point x="768" y="176" type="line" smooth="yes"/>
      <point x="819" y="176"/>
      <point x="839" y="134"/>
      <point x="839" y="84" type="curve" smooth="yes"/>
      <point x="839" y="40"/>
      <point x="813" y="0"/>
      <point x="766" y="0" type="curve" smooth="yes"/>
      <point x="110" y="0" type="line" smooth="yes"/>
      <point x="63" y="0"/>
      <point x="36" y="40"/>
    </contour>
  </outline>
</glyph>
<glyph name="I" format="1">
  <advance width="1008"/>
  <unicode hex="0049"/>
  <outline>
    <contour>
      <point x="74" y="84" type="curve" smooth="yes"/>
      <point x="74" y="134"/>
      <point x="94" y="176"/>
      <point x="145" y="176" type="curve" smooth="yes"/>
      <point x="389" y="176" type="line"/>
      <point x="389" y="1538" type="line"/>
      <point x="145" y="1538" type="line" smooth="yes"/>
      <point x="94" y="1538"/>
      <point x="74" y="1580"/>
      <point x="74" y="1630" type="curve" smooth="yes"/>
      <point x="74" y="1674"/>
      <point x="100" y="1714"/>
      <point x="147" y="1714" type="curve" smooth="yes"/>
      <point x="864" y="1714" type="line" smooth="yes"/>
      <point x="911" y="1714"/>
      <point x="938" y="1674"/>
      <point x="938" y="1630" type="curve" smooth="yes"/>
      <point x="938" y="1580"/>
      <point x="917" y="1538"/>
      <point x="866" y="1538" type="curve" smooth="yes"/>
      <point x="623" y="1538" type="line"/>
      <point x="623" y="176" type="line"/>
      <point x="866" y="176" type="line" smooth="yes"/>
      <point x="917" y="176"/>
      <point x="938" y="134"/>
      <point x="938" y="84" type="curve" smooth="yes"/>
      <point x="938" y="40"/>
      <point x="911" y="0"/>
      <point x="864" y="0" type="curve" smooth="yes"/>
      <point x="147" y="0" type="line" smooth="yes"/>
      <point x="100" y="0"/>
      <point x="74" y="40"/>
    </contour>
  </outline>
</glyph>
<glyph name="O" format="1">
  <advance width="1940"/>
  <unicode hex="004F"/>
  <outline>
    <contour>
      <point x="966" y="-25" type="curve" smooth="yes"/>
      <point x="442" y="-25"/>
      <point x="77" y="320"/>
      <point x="77" y="850" type="curve" smooth="yes"/>
      <point x="77" y="1382"/>
      <point x="442" y="1739"/>
      <point x="966" y="1739" type="curve" smooth="yes"/>
      <point x="1496" y="1739"/>
      <point x="1863" y="1382"/>
      <point x="1863" y="850" type="curve" smooth="yes"/>
      <point x="1863" y="320"/>
      <point x="1494" y="-25"/>
    </contour>
    <contour>
      <point x="957" y="1550" type="curve" smooth="yes"/>
      <point x="558" y="1550"/>
      <point x="327" y="1256"/>
      <point x="327" y="850" type="curve" smooth="yes"/>
      <point x="327" y="444"/>
      <point x="564" y="164"/>
      <point x="974" y="164" type="curve" smooth="yes"/>
      <point x="1375" y="164"/>
      <point x="1615" y="438"/>
      <point x="1615" y="848" type="curve" smooth="yes"/>
      <point x="1615" y="1262"/>
      <point x="1369" y="1550"/>
    </contour>
  </outline>
</glyph>
<glyph name="P" format="1">
  <advance width="1740"/>
  <unicode hex="0050"/>
  <outline>
    <contour>
      <point x="1435" y="1223" type="curve" smooth="yes"/>
      <point x="1435" y="1538"/>
      <point x="1094" y="1538"/>
      <point x="813" y="1538" type="curve" smooth="yes"/>
      <point x="606" y="1538" type="line"/>
      <point x="606" y="889" type="line"/>
      <point x="874" y="889" type="line" smooth="yes"/>
      <point x="1162" y="889"/>
      <point x="1435" y="903"/>
    </contour>
    <contour>
      <point x="1671" y="1208" type="curve" smooth="yes"/>
      <point x="1671" y="745"/>
      <point x="1249" y="725"/>
      <point x="821" y="725" type="curve" smooth="yes"/>
      <point x="606" y="725" type="line"/>
      <point x="606" y="176" type="line"/>
      <point x="911" y="176" type="line" smooth="yes"/>
      <point x="962" y="176"/>
      <point x="983" y="134"/>
      <point x="983" y="84" type="curve" smooth="yes"/>
      <point x="983" y="40"/>
      <point x="956" y="0"/>
      <point x="909" y="0" type="curve" smooth="yes"/>
      <point x="110" y="0" type="line" smooth="yes"/>
      <point x="63" y="0"/>
      <point x="36" y="40"/>
      <point x="36" y="84" type="curve" smooth="yes"/>
      <point x="36" y="134"/>
      <point x="57" y="176"/>
      <point x="108" y="176" type="curve" smooth="yes"/>
      <point x="372" y="176" type="line"/>
      <point x="372" y="1538" type="line"/>
      <point x="129" y="1538" type="line" smooth="yes"/>
      <point x="78" y="1538"/>
      <point x="57" y="1580"/>
      <point x="57" y="1630" type="curve" smooth="yes"/>
      <point x="57" y="1674"/>
      <point x="84" y="1714"/>
      <point x="131" y="1714" type="curve" smooth="yes"/>
      <point x="784" y="1714" type="line" smooth="yes"/>
      <point x="1231" y="1714"/>
      <point x="1671" y="1688"/>
    </contour>
  </outline>
</glyph>
<glyph name="Q" format="1">
  <advance width="1948"/>
  <unicode hex="0051"/>
  <outline>
    <contour>
      <point x="974" y="1550" type="curve" smooth="yes"/>
      <point x="571" y="1550"/>
      <point x="339" y="1255"/>
      <point x="339" y="850" type="curve" smooth="yes"/>
      <point x="339" y="444"/>
      <point x="572" y="164"/>
      <point x="974" y="164" type="curve" smooth="yes"/>
      <point x="1384" y="164"/>
      <point x="1629" y="439"/>
      <point x="1629" y="850" type="curve" smooth="yes"/>
      <point x="1629" y="1263"/>
      <point x="1384" y="1550"/>
    </contour>
    <contour>
      <point x="1140" y="-13" type="curve"/>
      <point x="1368" y="-161" type="line"/>
      <point x="1401" y="-178"/>
      <point x="1438" y="-183"/>
      <point x="1476" y="-183" type="curve" smooth="yes"/>
      <point x="1536" y="-183"/>
      <point x="1607" y="-154"/>
      <point x="1689" y="-95" type="curve" smooth="yes"/>
      <point x="1701" y="-87"/>
      <point x="1715" y="-83"/>
      <point x="1730" y="-83" type="curve" smooth="yes"/>
      <point x="1786" y="-83"/>
      <point x="1839" y="-136"/>
      <point x="1839" y="-191" type="curve" smooth="yes"/>
      <point x="1839" y="-314"/>
      <point x="1568" y="-384"/>
      <point x="1464" y="-384" type="curve" smooth="yes"/>
      <point x="1197" y="-384"/>
      <point x="1077" y="-91"/>
      <point x="878" y="-21" type="curve"/>
      <point x="401" y="18"/>
      <point x="77" y="352"/>
      <point x="77" y="850" type="curve" smooth="yes"/>
      <point x="77" y="1382"/>
      <point x="444" y="1739"/>
      <point x="974" y="1739" type="curve" smooth="yes"/>
      <point x="1504" y="1739"/>
      <point x="1871" y="1382"/>
      <point x="1871" y="850" type="curve" smooth="yes"/>
      <point x="1871" y="377"/>
      <point x="1579" y="52"/>
    </contour>
  </outline>
</glyph>
<glyph name="R" format="1">
  <advance width="1828"/>
  <unicode hex="0052"/>
  <outline>
    <contour>
      <point x="749" y="942" type="line" smooth="yes"/>
      <point x="1054" y="942"/>
      <point x="1325" y="947"/>
      <point x="1325" y="1239" type="curve" smooth="yes"/>
      <point x="1325" y="1537"/>
      <point x="1009" y="1538"/>
      <point x="712" y="1538" type="curve" smooth="yes"/>
      <point x="565" y="1538" type="line"/>
      <point x="565" y="942" type="line"/>
    </contour>
    <contour>
      <point x="1568" y="1249" type="curve" smooth="yes"/>
      <point x="1568" y="976"/>
      <point x="1368" y="872"/>
      <point x="1108" y="827" type="curve"/>
      <point x="1235" y="771"/>
      <point x="1330" y="686"/>
      <point x="1390" y="540" type="curve" smooth="yes"/>
      <point x="1540" y="177" type="line"/>
      <point x="1687" y="177" type="line" smooth="yes"/>
      <point x="1767" y="177"/>
      <point x="1795" y="153"/>
      <point x="1795" y="84" type="curve" smooth="yes"/>
      <point x="1795" y="9"/>
      <point x="1751" y="-1"/>
      <point x="1688" y="-1" type="curve" smooth="yes"/>
      <point x="1254" y="0" type="line" smooth="yes"/>
      <point x="1207" y="0"/>
      <point x="1180" y="40"/>
      <point x="1180" y="84" type="curve" smooth="yes"/>
      <point x="1180" y="134"/>
      <point x="1201" y="177"/>
      <point x="1252" y="177" type="curve" smooth="yes"/>
      <point x="1301" y="177" type="line"/>
      <point x="1189" y="460" type="line" smooth="yes"/>
      <point x="1129" y="611"/>
      <point x="991" y="764"/>
      <point x="792" y="764" type="curve" smooth="yes"/>
      <point x="565" y="764" type="line"/>
      <point x="565" y="177" type="line"/>
      <point x="829" y="177" type="line" smooth="yes"/>
      <point x="880" y="177"/>
      <point x="901" y="134"/>
      <point x="901" y="84" type="curve" smooth="yes"/>
      <point x="901" y="40"/>
      <point x="874" y="0"/>
      <point x="827" y="0" type="curve" smooth="yes"/>
      <point x="110" y="0" type="line" smooth="yes"/>
      <point x="63" y="0"/>
      <point x="36" y="40"/>
      <point x="36" y="84" type="curve" smooth="yes"/>
      <point x="36" y="134"/>
      <point x="57" y="177"/>
      <point x="108" y="177" type="curve" smooth="yes"/>
      <point x="331" y="177" type="line"/>
      <point x="331" y="1538" type="line"/>
      <point x="149" y="1538" type="line" smooth="yes"/>
      <point x="98" y="1538"/>
      <point x="77" y="1580"/>
      <point x="77" y="1630" type="curve" smooth="yes"/>
      <point x="77" y="1674"/>
      <point x="104" y="1714"/>
      <point x="151" y="1714" type="curve" smooth="yes"/>
      <point x="743" y="1714" type="line" smooth="yes"/>
      <point x="1178" y="1714"/>
      <point x="1568" y="1678"/>
    </contour>
  </outline>
</glyph>
<glyph name="S" format="1">
  <advance width="1511"/>
  <unicode hex="0053"/>
  <outline>
    <contour>
      <point x="805" y="1581" type="curve" smooth="yes"/>
      <point x="483" y="1581"/>
      <point x="409" y="1439"/>
      <point x="409" y="1287" type="curve" smooth="yes"/>
      <point x="409" y="1157"/>
      <point x="499" y="1082"/>
      <point x="678" y="1038" type="curve" smooth="yes"/>
      <point x="965" y="967" type="line" smooth="yes"/>
      <point x="1229" y="901"/>
      <point x="1410" y="775"/>
      <point x="1410" y="458" type="curve" smooth="yes"/>
      <point x="1410" y="111"/>
      <point x="1089" y="-27"/>
      <point x="738" y="-27" type="curve" smooth="yes"/>
      <point x="596" y="-27"/>
      <point x="442" y="7"/>
      <point x="314" y="95" type="curve"/>
      <point x="309" y="49"/>
      <point x="288" y="-25"/>
      <point x="242" y="-25" type="curve" smooth="yes"/>
      <point x="194" y="-25"/>
      <point x="163" y="-6"/>
      <point x="158" y="39" type="curve" smooth="yes"/>
      <point x="101" y="535" type="line"/>
      <point x="101" y="588"/>
      <point x="133" y="614"/>
      <point x="197" y="614" type="curve" smooth="yes"/>
      <point x="237" y="614"/>
      <point x="272" y="589"/>
      <point x="277" y="549" type="curve" smooth="yes"/>
      <point x="293" y="410" type="line"/>
      <point x="306" y="286"/>
      <point x="506" y="150"/>
      <point x="713" y="150" type="curve" smooth="yes"/>
      <point x="942" y="150"/>
      <point x="1205" y="208"/>
      <point x="1205" y="459" type="curve" smooth="yes"/>
      <point x="1205" y="640"/>
      <point x="1080" y="689"/>
      <point x="930" y="732" type="curve" smooth="yes"/>
      <point x="602" y="825" type="line"/>
      <point x="362" y="879"/>
      <point x="188" y="1001"/>
      <point x="188" y="1271" type="curve" smooth="yes"/>
      <point x="188" y="1564"/>
      <point x="449" y="1739"/>
      <point x="772" y="1739" type="curve" smooth="yes"/>
      <point x="912" y="1739"/>
      <point x="1070" y="1707"/>
      <point x="1167" y="1627" type="curve"/>
      <point x="1167" y="1683"/>
      <point x="1206" y="1738"/>
      <point x="1261" y="1738" type="curve" smooth="yes"/>
      <point x="1301" y="1738"/>
      <point x="1336" y="1712"/>
      <point x="1341" y="1672" type="curve"/>
      <point x="1348" y="1275" type="line"/>
      <point x="1348" y="1217"/>
      <point x="1309" y="1193"/>
      <point x="1256" y="1193" type="curve" smooth="yes"/>
      <point x="1209" y="1193"/>
      <point x="1177" y="1212"/>
      <point x="1172" y="1256" type="curve"/>
      <point x="1168" y="1372" type="line"/>
      <point x="1150" y="1524"/>
      <point x="976" y="1581"/>
    </contour>
  </outline>
</glyph>
<glyph name="V" format="1">
  <advance width="1856"/>
  <unicode hex="0056"/>
  <outline>
    <contour>
      <point x="1839" y="1630" type="curve" smooth="yes"/>
      <point x="1839" y="1580"/>
      <point x="1819" y="1538"/>
      <point x="1768" y="1538" type="curve" smooth="yes"/>
      <point x="1598" y="1538" type="line"/>
      <point x="1047" y="29" type="line"/>
      <point x="1024" y="-23"/>
      <point x="1006" y="-53"/>
      <point x="953" y="-53" type="curve" smooth="yes"/>
      <point x="901" y="-53"/>
      <point x="878" y="-19"/>
      <point x="860" y="29" type="curve" smooth="yes"/>
      <point x="301" y="1538" type="line"/>
      <point x="90" y="1538" type="line" smooth="yes"/>
      <point x="39" y="1538"/>
      <point x="19" y="1580"/>
      <point x="19" y="1630" type="curve" smooth="yes"/>
      <point x="19" y="1674"/>
      <point x="45" y="1714"/>
      <point x="92" y="1714" type="curve" smooth="yes"/>
      <point x="707" y="1714" type="line" smooth="yes"/>
      <point x="754" y="1714"/>
      <point x="781" y="1674"/>
      <point x="781" y="1630" type="curve" smooth="yes"/>
      <point x="781" y="1580"/>
      <point x="760" y="1538"/>
      <point x="709" y="1538" type="curve" smooth="yes"/>
      <point x="547" y="1538" type="line"/>
      <point x="981" y="332" type="line"/>
      <point x="1393" y="1538" type="line"/>
      <point x="1231" y="1538" type="line" smooth="yes"/>
      <point x="1180" y="1538"/>
      <point x="1159" y="1580"/>
      <point x="1159" y="1630" type="curve" smooth="yes"/>
      <point x="1159" y="1674"/>
      <point x="1186" y="1714"/>
      <point x="1233" y="1714" type="curve" smooth="yes"/>
      <point x="1766" y="1714" type="line" smooth="yes"/>
      <point x="1813" y="1714"/>
      <point x="1839" y="1674"/>
    </contour>
  </outline>
</glyph>
<glyph name="W" format="1">
  <advance width="2314"/>
  <unicode hex="0057"/>
  <outline>
    <contour>
      <point x="1655" y="1622" type="curve" smooth="yes"/>
      <point x="1655" y="1672"/>
      <point x="1676" y="1714"/>
      <point x="1727" y="1714" type="curve" smooth="yes"/>
      <point x="2224" y="1714" type="line" smooth="yes"/>
      <point x="2275" y="1714"/>
      <point x="2296" y="1672"/>
      <point x="2296" y="1622" type="curve" smooth="yes"/>
      <point x="2296" y="1578"/>
      <point x="2269" y="1538"/>
      <point x="2222" y="1538" type="curve" smooth="yes"/>
      <point x="2056" y="1538" type="line"/>
      <point x="1620" y="39" type="line"/>
      <point x="1606" y="3"/>
      <point x="1560" y="-27"/>
      <point x="1510" y="-27" type="curve" smooth="yes"/>
      <point x="1459" y="-27"/>
      <point x="1418" y="-2"/>
      <point x="1411" y="47" type="curve"/>
      <point x="1153" y="1135" type="line"/>
      <point x="856" y="39" type="line"/>
      <point x="843" y="2"/>
      <point x="792" y="-27"/>
      <point x="742" y="-27" type="curve" smooth="yes"/>
      <point x="686" y="-27"/>
      <point x="647" y="-2"/>
      <point x="637" y="51" type="curve"/>
      <point x="254" y="1538" type="line"/>
      <point x="90" y="1538" type="line" smooth="yes"/>
      <point x="43" y="1538"/>
      <point x="17" y="1578"/>
      <point x="17" y="1622" type="curve" smooth="yes"/>
      <point x="17" y="1672"/>
      <point x="37" y="1714"/>
      <point x="88" y="1714" type="curve" smooth="yes"/>
      <point x="586" y="1714" type="line" smooth="yes"/>
      <point x="637" y="1714"/>
      <point x="658" y="1672"/>
      <point x="658" y="1622" type="curve" smooth="yes"/>
      <point x="658" y="1578"/>
      <point x="631" y="1538"/>
      <point x="584" y="1538" type="curve" smooth="yes"/>
      <point x="490" y="1538" type="line"/>
      <point x="774" y="381" type="line"/>
      <point x="1098" y="1538" type="line"/>
      <point x="1006" y="1538" type="line" smooth="yes"/>
      <point x="959" y="1538"/>
      <point x="932" y="1578"/>
      <point x="932" y="1622" type="curve" smooth="yes"/>
      <point x="932" y="1672"/>
      <point x="953" y="1714"/>
      <point x="1004" y="1714" type="curve" smooth="yes"/>
      <point x="1358" y="1714" type="line" smooth="yes"/>
      <point x="1409" y="1714"/>
      <point x="1430" y="1672"/>
      <point x="1430" y="1622" type="curve" smooth="yes"/>
      <point x="1430" y="1578"/>
      <point x="1403" y="1538"/>
      <point x="1356" y="1538" type="curve" smooth="yes"/>
      <point x="1256" y="1538" type="line"/>
      <point x="1534" y="401" type="line"/>
      <point x="1850" y="1538" type="line"/>
      <point x="1729" y="1538" type="line" smooth="yes"/>
      <point x="1682" y="1538"/>
      <point x="1655" y="1578"/>
    </contour>
  </outline>
</glyph>
<glyph name="X" format="1">
  <advance width="1951"/>
  <unicode hex="0058"/>
  <outline>
    <contour>
      <point x="1911" y="1630" type="curve" smooth="yes"/>
      <point x="1911" y="1580"/>
      <point x="1890" y="1538"/>
      <point x="1839" y="1538" type="curve" smooth="yes"/>
      <point x="1673" y="1538" type="line"/>
      <point x="1120" y="895" type="line"/>
      <point x="1739" y="176" type="line"/>
      <point x="1860" y="176" type="line" smooth="yes"/>
      <point x="1911" y="176"/>
      <point x="1932" y="134"/>
      <point x="1932" y="84" type="curve" smooth="yes"/>
      <point x="1932" y="40"/>
      <point x="1905" y="0"/>
      <point x="1858" y="0" type="curve" smooth="yes"/>
      <point x="1182" y="0" type="line" smooth="yes"/>
      <point x="1135" y="0"/>
      <point x="1108" y="40"/>
      <point x="1108" y="84" type="curve" smooth="yes"/>
      <point x="1108" y="134"/>
      <point x="1129" y="176"/>
      <point x="1180" y="176" type="curve" smooth="yes"/>
      <point x="1458" y="176" type="line"/>
      <point x="979" y="731" type="line"/>
      <point x="502" y="176" type="line"/>
      <point x="750" y="176" type="line" smooth="yes"/>
      <point x="801" y="176"/>
      <point x="821" y="134"/>
      <point x="821" y="84" type="curve" smooth="yes"/>
      <point x="821" y="40"/>
      <point x="795" y="0"/>
      <point x="748" y="0" type="curve" smooth="yes"/>
      <point x="92" y="0" type="line" smooth="yes"/>
      <point x="45" y="0"/>
      <point x="19" y="40"/>
      <point x="19" y="84" type="curve" smooth="yes"/>
      <point x="19" y="134"/>
      <point x="39" y="176"/>
      <point x="90" y="176" type="curve" smooth="yes"/>
      <point x="273" y="176" type="line"/>
      <point x="864" y="864" type="line"/>
      <point x="287" y="1538" type="line"/>
      <point x="152" y="1538" type="line" smooth="yes"/>
      <point x="101" y="1538"/>
      <point x="80" y="1580"/>
      <point x="80" y="1630" type="curve" smooth="yes"/>
      <point x="80" y="1674"/>
      <point x="107" y="1714"/>
      <point x="154" y="1714" type="curve" smooth="yes"/>
      <point x="748" y="1714" type="line" smooth="yes"/>
      <point x="795" y="1714"/>
      <point x="821" y="1674"/>
      <point x="821" y="1630" type="curve" smooth="yes"/>
      <point x="821" y="1580"/>
      <point x="801" y="1538"/>
      <point x="750" y="1538" type="curve" smooth="yes"/>
      <point x="568" y="1538" type="line"/>
      <point x="1006" y="1028" type="line"/>
      <point x="1444" y="1538" type="line"/>
      <point x="1262" y="1538" type="line" smooth="yes"/>
      <point x="1211" y="1538"/>
      <point x="1190" y="1580"/>
      <point x="1190" y="1630" type="curve" smooth="yes"/>
      <point x="1190" y="1674"/>
      <point x="1217" y="1714"/>
      <point x="1264" y="1714" type="curve" smooth="yes"/>
      <point x="1837" y="1714" type="line" smooth="yes"/>
      <point x="1884" y="1714"/>
      <point x="1911" y="1674"/>
    </contour>
  </outline>
</glyph>
<glyph name="Y" format="1">
  <advance width="1824"/>
  <unicode hex="0059"/>
  <outline>
    <contour>
      <point x="1763" y="1630" type="curve" smooth="yes"/>
      <point x="1763" y="1580"/>
      <point x="1742" y="1538"/>
      <point x="1691" y="1538" type="curve" smooth="yes"/>
      <point x="1552" y="1538" type="line"/>
      <point x="1055" y="723" type="line"/>
      <point x="1055" y="176" type="line"/>
      <point x="1278" y="176" type="line" smooth="yes"/>
      <point x="1329" y="176"/>
      <point x="1349" y="134"/>
      <point x="1349" y="84" type="curve" smooth="yes"/>
      <point x="1349" y="40"/>
      <point x="1323" y="0"/>
      <point x="1276" y="0" type="curve" smooth="yes"/>
      <point x="559" y="0" type="line" smooth="yes"/>
      <point x="512" y="0"/>
      <point x="485" y="40"/>
      <point x="485" y="84" type="curve" smooth="yes"/>
      <point x="485" y="134"/>
      <point x="506" y="176"/>
      <point x="557" y="176" type="curve" smooth="yes"/>
      <point x="821" y="176" type="line"/>
      <point x="821" y="739" type="line"/>
      <point x="346" y="1538" type="line"/>
      <point x="135" y="1538" type="line" smooth="yes"/>
      <point x="84" y="1538"/>
      <point x="63" y="1580"/>
      <point x="63" y="1630" type="curve" smooth="yes"/>
      <point x="63" y="1674"/>
      <point x="90" y="1714"/>
      <point x="137" y="1714" type="curve" smooth="yes"/>
      <point x="731" y="1714" type="line" smooth="yes"/>
      <point x="778" y="1714"/>
      <point x="805" y="1674"/>
      <point x="805" y="1630" type="curve" smooth="yes"/>
      <point x="805" y="1580"/>
      <point x="784" y="1538"/>
      <point x="733" y="1538" type="curve" smooth="yes"/>
      <point x="592" y="1538" type="line"/>
      <point x="977" y="891" type="line"/>
      <point x="1358" y="1538" type="line"/>
      <point x="1196" y="1538" type="line" smooth="yes"/>
      <point x="1145" y="1538"/>
      <point x="1124" y="1580"/>
      <point x="1124" y="1630" type="curve" smooth="yes"/>
      <point x="1124" y="1674"/>
      <point x="1151" y="1714"/>
      <point x="1198" y="1714" type="curve" smooth="yes"/>
      <point x="1689" y="1714" type="line" smooth="yes"/>
      <point x="1736" y="1714"/>
      <point x="1763" y="1674"/>
    </contour>
  </outline>
</glyph>
<glyph name="backslash" format="1">
  <advance width="1176"/>
  <unicode hex="005C"/>
  <outline>
    <contour>
      <point x="-129" y="1804" type="curve" smooth="yes"/>
      <point x="-129" y="1854"/>
      <point x="-73" y="1890"/>
      <point x="-26" y="1890" type="curve" smooth="yes"/>
      <point x="1" y="1890"/>
      <point x="21" y="1877"/>
      <point x="35" y="1851" type="curve"/>
      <point x="1143" y="-463" type="line" smooth="yes"/>
      <point x="1148" y="-473"/>
      <point x="1151" y="-483"/>
      <point x="1151" y="-494" type="curve" smooth="yes"/>
      <point x="1151" y="-542"/>
      <point x="1094" y="-580"/>
      <point x="1047" y="-580" type="curve" smooth="yes"/>
      <point x="1012" y="-580"/>
      <point x="994" y="-561"/>
      <point x="979" y="-532" type="curve"/>
      <point x="-123" y="1776" type="line" smooth="yes"/>
      <point x="-127" y="1786"/>
      <point x="-129" y="1794"/>
    </contour>
  </outline>
</glyph>
<glyph name="a" format="1">
  <advance width="1328"/>
  <unicode hex="0061"/>
  <outline>
    <contour>
      <point x="1343" y="168" type="curve" smooth="yes"/>
      <point x="1343" y="61"/>
      <point x="1154" y="-25"/>
      <point x="1063" y="-25" type="curve" smooth="yes"/>
      <point x="953" y="-25"/>
      <point x="887" y="27"/>
      <point x="863" y="137" type="curve"/>
      <point x="765" y="24"/>
      <point x="599" y="-28"/>
      <point x="420" y="-28" type="curve" smooth="yes"/>
      <point x="215" y="-28"/>
      <point x="62" y="107"/>
      <point x="62" y="307" type="curve" smooth="yes"/>
      <point x="62" y="666"/>
      <point x="501" y="688"/>
      <point x="836" y="717" type="curve"/>
      <point x="836" y="879" type="line" smooth="yes"/>
      <point x="836" y="984"/>
      <point x="728" y="1018"/>
      <point x="625" y="1018" type="curve" smooth="yes"/>
      <point x="437" y="1018"/>
      <point x="372" y="979"/>
      <point x="244" y="897" type="curve" smooth="yes"/>
      <point x="232" y="890"/>
      <point x="221" y="886"/>
      <point x="209" y="886" type="curve" smooth="yes"/>
      <point x="163" y="886"/>
      <point x="121" y="938"/>
      <point x="121" y="985" type="curve" smooth="yes"/>
      <point x="121" y="1146"/>
      <point x="430" y="1188"/>
      <point x="596" y="1188" type="curve" smooth="yes"/>
      <point x="935" y="1188"/>
      <point x="1035" y="1058"/>
      <point x="1035" y="723" type="curve" smooth="yes"/>
      <point x="1035" y="219" type="line" smooth="yes"/>
      <point x="1035" y="178"/>
      <point x="1048" y="147"/>
      <point x="1079" y="147" type="curve" smooth="yes"/>
      <point x="1139" y="147"/>
      <point x="1224" y="255"/>
      <point x="1272" y="255" type="curve" smooth="yes"/>
      <point x="1302" y="255"/>
      <point x="1343" y="205"/>
    </contour>
    <contour>
      <point x="836" y="567" type="line"/>
      <point x="624" y="544"/>
      <point x="277" y="538"/>
      <point x="277" y="313" type="curve" smooth="yes"/>
      <point x="277" y="199"/>
      <point x="374" y="145"/>
      <point x="490" y="145" type="curve" smooth="yes"/>
      <point x="630" y="145"/>
      <point x="744" y="203"/>
      <point x="836" y="276" type="curve"/>
    </contour>
  </outline>
</glyph>
<glyph name="b" format="1">
  <advance width="1417"/>
  <unicode hex="0062"/>
  <outline>
    <contour>
      <point x="1126" y="582" type="curve" smooth="yes"/>
      <point x="1126" y="814"/>
      <point x="1012" y="1018"/>
      <point x="786" y="1018" type="curve" smooth="yes"/>
      <point x="624" y="1018"/>
      <point x="511" y="965"/>
      <point x="430" y="881" type="curve"/>
      <point x="430" y="324" type="line"/>
      <point x="501" y="221"/>
      <point x="613" y="145"/>
      <point x="776" y="145" type="curve" smooth="yes"/>
      <point x="1009" y="145"/>
      <point x="1126" y="347"/>
    </contour>
    <contour>
      <point x="1347" y="582" type="curve" smooth="yes"/>
      <point x="1347" y="227"/>
      <point x="1140" y="-25"/>
      <point x="790" y="-25" type="curve" smooth="yes"/>
      <point x="625" y="-25"/>
      <point x="493" y="55"/>
      <point x="409" y="150" type="curve"/>
      <point x="409" y="68"/>
      <point x="390" y="-8"/>
      <point x="313" y="-8" type="curve" smooth="yes"/>
      <point x="245" y="-8"/>
      <point x="225" y="51"/>
      <point x="225" y="117" type="curve" smooth="yes"/>
      <point x="225" y="1524" type="line"/>
      <point x="-11" y="1462" type="line"/>
      <point x="-17" y="1462"/>
      <point x="-15" y="1460"/>
      <point x="-21" y="1460" type="curve" smooth="yes"/>
      <point x="-63" y="1460"/>
      <point x="-101" y="1505"/>
      <point x="-101" y="1546" type="curve" smooth="yes"/>
      <point x="-101" y="1603"/>
      <point x="-67" y="1613"/>
      <point x="-23" y="1626" type="curve" smooth="yes"/>
      <point x="362" y="1737" type="line" smooth="yes"/>
      <point x="365" y="1738"/>
      <point x="369" y="1739"/>
      <point x="376" y="1739" type="curve" smooth="yes"/>
      <point x="404" y="1739"/>
      <point x="430" y="1720"/>
      <point x="430" y="1690" type="curve" smooth="yes"/>
      <point x="430" y="1035" type="line"/>
      <point x="525" y="1127"/>
      <point x="629" y="1188"/>
      <point x="794" y="1188" type="curve" smooth="yes"/>
      <point x="1135" y="1188"/>
      <point x="1347" y="929"/>
    </contour>
  </outline>
</glyph>
<glyph name="c" format="1">
  <advance width="1251"/>
  <unicode hex="0063"/>
  <outline>
    <contour>
      <point x="738" y="1188" type="curve" smooth="yes"/>
      <point x="941" y="1188"/>
      <point x="1168" y="1128"/>
      <point x="1168" y="878" type="curve" smooth="yes"/>
      <point x="1168" y="799"/>
      <point x="1139" y="738"/>
      <point x="1071" y="738" type="curve" smooth="yes"/>
      <point x="971" y="738"/>
      <point x="961" y="886"/>
      <point x="935" y="993" type="curve"/>
      <point x="870" y="1010"/>
      <point x="806" y="1018"/>
      <point x="745" y="1018" type="curve" smooth="yes"/>
      <point x="487" y="1018"/>
      <point x="292" y="860"/>
      <point x="292" y="596" type="curve" smooth="yes"/>
      <point x="292" y="310"/>
      <point x="491" y="174"/>
      <point x="710" y="174" type="curve" smooth="yes"/>
      <point x="824" y="174"/>
      <point x="943" y="217"/>
      <point x="1038" y="302" type="curve" smooth="yes"/>
      <point x="1057" y="318"/>
      <point x="1078" y="328"/>
      <point x="1101" y="328" type="curve" smooth="yes"/>
      <point x="1156" y="328"/>
      <point x="1197" y="299"/>
      <point x="1197" y="250" type="curve" smooth="yes"/>
      <point x="1197" y="78"/>
      <point x="897" y="-25"/>
      <point x="722" y="-25" type="curve" smooth="yes"/>
      <point x="338" y="-25"/>
      <point x="70" y="207"/>
      <point x="70" y="596" type="curve" smooth="yes"/>
      <point x="70" y="977"/>
      <point x="377" y="1188"/>
    </contour>
  </outline>
</glyph>
<glyph name="e" format="1">
  <advance width="1304"/>
  <unicode hex="0065"/>
  <outline>
    <contour>
      <point x="283" y="559" type="line"/>
      <point x="283" y="297"/>
      <point x="467" y="158"/>
      <point x="707" y="158" type="curve" smooth="yes"/>
      <point x="877" y="158"/>
      <point x="957" y="232"/>
      <point x="1045" y="314" type="curve"/>
      <point x="1065" y="331"/>
      <point x="1088" y="340"/>
      <point x="1111" y="340" type="curve" smooth="yes"/>
      <point x="1165" y="340"/>
      <point x="1207" y="305"/>
      <point x="1207" y="250" type="curve" smooth="yes"/>
      <point x="1207" y="79"/>
      <point x="883" y="-25"/>
      <point x="699" y="-25" type="curve" smooth="yes"/>
      <point x="332" y="-25"/>
      <point x="70" y="207"/>
      <point x="70" y="575" type="curve" smooth="yes"/>
      <point x="70" y="939"/>
      <point x="301" y="1188"/>
      <point x="675" y="1188" type="curve" smooth="yes"/>
      <point x="943" y="1188"/>
      <point x="1205" y="985"/>
      <point x="1205" y="692" type="curve" smooth="yes"/>
      <point x="1205" y="592"/>
      <point x="1136" y="590"/>
      <point x="1041" y="580" type="curve"/>
    </contour>
    <contour>
      <point x="954" y="756" type="curve" smooth="yes"/>
      <point x="954" y="947"/>
      <point x="815" y="1018"/>
      <point x="675" y="1018" type="curve" smooth="yes"/>
      <point x="439" y="1018"/>
      <point x="296" y="893"/>
      <point x="279" y="700" type="curve"/>
      <point x="880" y="713" type="line"/>
      <point x="917" y="715"/>
      <point x="954" y="725"/>
    </contour>
  </outline>
</glyph>
<glyph name="h" format="1">
  <advance width="1544"/>
  <unicode hex="0068"/>
  <outline>
    <contour>
      <point x="841" y="1018" type="curve" smooth="yes"/>
      <point x="688" y="1018"/>
      <point x="567" y="909"/>
      <point x="499" y="799" type="curve"/>
      <point x="499" y="176" type="line"/>
      <point x="663" y="176" type="line" smooth="yes"/>
      <point x="715" y="176"/>
      <point x="724" y="136"/>
      <point x="724" y="86" type="curve" smooth="yes"/>
      <point x="724" y="46"/>
      <point x="703" y="0"/>
      <point x="661" y="0" type="curve" smooth="yes"/>
      <point x="172" y="0" type="line" smooth="yes"/>
      <point x="115" y="0"/>
      <point x="96" y="32"/>
      <point x="96" y="84" type="curve" smooth="yes"/>
      <point x="96" y="134"/>
      <point x="113" y="176"/>
      <point x="165" y="176" type="curve" smooth="yes"/>
      <point x="294" y="176" type="line"/>
      <point x="294" y="1524" type="line"/>
      <point x="59" y="1462" type="line"/>
      <point x="53" y="1462"/>
      <point x="55" y="1460"/>
      <point x="49" y="1460" type="curve" smooth="yes"/>
      <point x="7" y="1460"/>
      <point x="-31" y="1505"/>
      <point x="-31" y="1546" type="curve" smooth="yes"/>
      <point x="-31" y="1603"/>
      <point x="3" y="1613"/>
      <point x="47" y="1626" type="curve" smooth="yes"/>
      <point x="432" y="1737" type="line" smooth="yes"/>
      <point x="435" y="1738"/>
      <point x="439" y="1739"/>
      <point x="446" y="1739" type="curve" smooth="yes"/>
      <point x="474" y="1739"/>
      <point x="499" y="1720"/>
      <point x="499" y="1690" type="curve" smooth="yes"/>
      <point x="499" y="1004" type="line"/>
      <point x="577" y="1097"/>
      <point x="713" y="1188"/>
      <point x="878" y="1188" type="curve" smooth="yes"/>
      <point x="1128" y="1188"/>
      <point x="1286" y="1032"/>
      <point x="1286" y="780" type="curve" smooth="yes"/>
      <point x="1286" y="176" type="line"/>
      <point x="1449" y="176" type="line" smooth="yes"/>
      <point x="1501" y="176"/>
      <point x="1511" y="136"/>
      <point x="1511" y="86" type="curve" smooth="yes"/>
      <point x="1511" y="46"/>
      <point x="1489" y="0"/>
      <point x="1447" y="0" type="curve" smooth="yes"/>
      <point x="958" y="0" type="line" smooth="yes"/>
      <point x="901" y="0"/>
      <point x="882" y="32"/>
      <point x="882" y="84" type="curve" smooth="yes"/>
      <point x="882" y="134"/>
      <point x="900" y="176"/>
      <point x="952" y="176" type="curve" smooth="yes"/>
      <point x="1083" y="176" type="line"/>
      <point x="1083" y="762" type="line" smooth="yes"/>
      <point x="1083" y="922"/>
      <point x="1003" y="1018"/>
    </contour>
  </outline>
</glyph>
<glyph name="i" format="1">
  <advance width="788"/>
  <unicode hex="0069"/>
  <outline>
    <contour>
      <point x="410" y="1427" type="curve" smooth="yes"/>
      <point x="326" y="1427"/>
      <point x="258" y="1495"/>
      <point x="258" y="1579" type="curve" smooth="yes"/>
      <point x="258" y="1663"/>
      <point x="326" y="1731"/>
      <point x="410" y="1731" type="curve" smooth="yes"/>
      <point x="494" y="1731"/>
      <point x="561" y="1663"/>
      <point x="561" y="1579" type="curve" smooth="yes"/>
      <point x="561" y="1495"/>
      <point x="494" y="1427"/>
    </contour>
    <contour>
      <point x="102" y="83" type="curve" smooth="yes"/>
      <point x="102" y="132"/>
      <point x="126" y="173"/>
      <point x="178" y="173" type="curve" smooth="yes"/>
      <point x="315" y="173" type="line"/>
      <point x="315" y="983" type="line"/>
      <point x="172" y="944" type="line" smooth="yes"/>
      <point x="169" y="943"/>
      <point x="165" y="942"/>
      <point x="158" y="942" type="curve" smooth="yes"/>
      <point x="118" y="942"/>
      <point x="76" y="981"/>
      <point x="76" y="1022" type="curve" smooth="yes"/>
      <point x="76" y="1065"/>
      <point x="95" y="1096"/>
      <point x="133" y="1106" type="curve" smooth="yes"/>
      <point x="453" y="1186" type="line" smooth="yes"/>
      <point x="457" y="1187"/>
      <point x="462" y="1188"/>
      <point x="469" y="1188" type="curve" smooth="yes"/>
      <point x="499" y="1188"/>
      <point x="520" y="1171"/>
      <point x="520" y="1141" type="curve" smooth="yes"/>
      <point x="520" y="173" type="line"/>
      <point x="674" y="173" type="line" smooth="yes"/>
      <point x="725" y="173"/>
      <point x="746" y="131"/>
      <point x="746" y="81" type="curve" smooth="yes"/>
      <point x="746" y="37"/>
      <point x="719" y="0"/>
      <point x="672" y="0" type="curve" smooth="yes"/>
      <point x="184" y="0" type="line" smooth="yes"/>
      <point x="128" y="0"/>
      <point x="102" y="32"/>
    </contour>
  </outline>
</glyph>
<glyph name="k" format="1">
  <advance width="1492"/>
  <unicode hex="006B"/>
  <outline>
    <contour>
      <point x="446" y="1739" type="curve" smooth="yes"/>
      <point x="474" y="1739"/>
      <point x="499" y="1720"/>
      <point x="499" y="1690" type="curve" smooth="yes"/>
      <point x="499" y="620" type="line"/>
      <point x="654" y="725"/>
      <point x="831" y="847"/>
      <point x="982" y="946" type="curve"/>
      <point x="985" y="946"/>
      <point x="898" y="946"/>
      <point x="876" y="946" type="curve" smooth="yes"/>
      <point x="824" y="946"/>
      <point x="800" y="986"/>
      <point x="800" y="1036" type="curve" smooth="yes"/>
      <point x="800" y="1087"/>
      <point x="826" y="1122"/>
      <point x="882" y="1122" type="curve" smooth="yes"/>
      <point x="1345" y="1122" type="line" smooth="yes"/>
      <point x="1392" y="1122"/>
      <point x="1419" y="1112"/>
      <point x="1419" y="1068" type="curve" smooth="yes"/>
      <point x="1419" y="1018"/>
      <point x="1398" y="946"/>
      <point x="1347" y="946" type="curve" smooth="yes"/>
      <point x="1236" y="946" type="line" smooth="yes"/>
      <point x="1183" y="946"/>
      <point x="1146" y="909"/>
      <point x="1111" y="883" type="curve" smooth="yes"/>
      <point x="821" y="664" type="line"/>
      <point x="1111" y="291" type="line"/>
      <point x="1183" y="191"/>
      <point x="1235" y="188"/>
      <point x="1363" y="188" type="curve" smooth="yes"/>
      <point x="1378" y="188" type="line" smooth="yes"/>
      <point x="1467" y="188"/>
      <point x="1494" y="173"/>
      <point x="1494" y="96" type="curve" smooth="yes"/>
      <point x="1494" y="17"/>
      <point x="1445" y="0"/>
      <point x="1355" y="0" type="curve" smooth="yes"/>
      <point x="919" y="0" type="line" smooth="yes"/>
      <point x="868" y="0"/>
      <point x="843" y="40"/>
      <point x="843" y="90" type="curve" smooth="yes"/>
      <point x="843" y="141"/>
      <point x="868" y="176"/>
      <point x="925" y="176" type="curve" smooth="yes"/>
      <point x="984" y="176" type="line"/>
      <point x="683" y="579" type="line"/>
      <point x="499" y="467" type="line"/>
      <point x="499" y="176" type="line"/>
      <point x="651" y="176" type="line" smooth="yes"/>
      <point x="702" y="176"/>
      <point x="722" y="134"/>
      <point x="722" y="84" type="curve" smooth="yes"/>
      <point x="722" y="40"/>
      <point x="696" y="0"/>
      <point x="649" y="0" type="curve" smooth="yes"/>
      <point x="145" y="0" type="line" smooth="yes"/>
      <point x="89" y="0"/>
      <point x="63" y="35"/>
      <point x="63" y="86" type="curve" smooth="yes"/>
      <point x="63" y="135"/>
      <point x="87" y="176"/>
      <point x="139" y="176" type="curve" smooth="yes"/>
      <point x="294" y="176" type="line"/>
      <point x="294" y="1524" type="line"/>
      <point x="59" y="1462" type="line"/>
      <point x="53" y="1462"/>
      <point x="54" y="1460"/>
      <point x="48" y="1460" type="curve" smooth="yes"/>
      <point x="6" y="1460"/>
      <point x="-31" y="1505"/>
      <point x="-31" y="1546" type="curve" smooth="yes"/>
      <point x="-31" y="1603"/>
      <point x="2" y="1613"/>
      <point x="46" y="1626" type="curve" smooth="yes"/>
      <point x="431" y="1737" type="line" smooth="yes"/>
      <point x="434" y="1738"/>
      <point x="439" y="1739"/>
    </contour>
  </outline>
</glyph>
<glyph name="m" format="1">
  <advance width="2532"/>
  <unicode hex="006D"/>
  <outline>
    <contour>
      <point x="1854" y="1188" type="curve" smooth="yes"/>
      <point x="2101" y="1188"/>
      <point x="2282" y="1029"/>
      <point x="2282" y="780" type="curve" smooth="yes"/>
      <point x="2282" y="176" type="line"/>
      <point x="2428" y="176" type="line" smooth="yes"/>
      <point x="2479" y="176"/>
      <point x="2499" y="134"/>
      <point x="2499" y="84" type="curve" smooth="yes"/>
      <point x="2499" y="40"/>
      <point x="2473" y="0"/>
      <point x="2426" y="0" type="curve" smooth="yes"/>
      <point x="1938" y="0" type="line" smooth="yes"/>
      <point x="1882" y="0"/>
      <point x="1856" y="35"/>
      <point x="1856" y="86" type="curve" smooth="yes"/>
      <point x="1856" y="135"/>
      <point x="1880" y="176"/>
      <point x="1932" y="176" type="curve" smooth="yes"/>
      <point x="2080" y="176" type="line"/>
      <point x="2080" y="762" type="line" smooth="yes"/>
      <point x="2080" y="922"/>
      <point x="2000" y="1018"/>
      <point x="1838" y="1018" type="curve" smooth="yes"/>
      <point x="1622" y="1018"/>
      <point x="1478" y="885"/>
      <point x="1396" y="733" type="curve"/>
      <point x="1396" y="176" type="line"/>
      <point x="1561" y="176" type="line" smooth="yes"/>
      <point x="1612" y="176"/>
      <point x="1633" y="134"/>
      <point x="1633" y="84" type="curve" smooth="yes"/>
      <point x="1633" y="40"/>
      <point x="1606" y="0"/>
      <point x="1559" y="0" type="curve" smooth="yes"/>
      <point x="1031" y="0" type="line" smooth="yes"/>
      <point x="975" y="0"/>
      <point x="949" y="35"/>
      <point x="949" y="86" type="curve" smooth="yes"/>
      <point x="949" y="135"/>
      <point x="973" y="176"/>
      <point x="1025" y="176" type="curve" smooth="yes"/>
      <point x="1193" y="176" type="line"/>
      <point x="1193" y="762" type="line" smooth="yes"/>
      <point x="1193" y="922"/>
      <point x="1113" y="1018"/>
      <point x="951" y="1018" type="curve" smooth="yes"/>
      <point x="725" y="1018"/>
      <point x="571" y="897"/>
      <point x="494" y="743" type="curve"/>
      <point x="494" y="176" type="line"/>
      <point x="679" y="176" type="line" smooth="yes"/>
      <point x="730" y="176"/>
      <point x="750" y="134"/>
      <point x="750" y="84" type="curve" smooth="yes"/>
      <point x="750" y="40"/>
      <point x="724" y="0"/>
      <point x="677" y="0" type="curve" smooth="yes"/>
      <point x="148" y="0" type="line" smooth="yes"/>
      <point x="92" y="0"/>
      <point x="66" y="35"/>
      <point x="66" y="86" type="curve" smooth="yes"/>
      <point x="66" y="135"/>
      <point x="90" y="176"/>
      <point x="142" y="176" type="curve" smooth="yes"/>
      <point x="290" y="176" type="line"/>
      <point x="290" y="979" type="line"/>
      <point x="146" y="944" type="line" smooth="yes"/>
      <point x="143" y="943"/>
      <point x="139" y="942"/>
      <point x="132" y="942" type="curve" smooth="yes"/>
      <point x="92" y="942"/>
      <point x="50" y="981"/>
      <point x="50" y="1022" type="curve" smooth="yes"/>
      <point x="50" y="1067"/>
      <point x="69" y="1094"/>
      <point x="107" y="1106" type="curve"/>
      <point x="386" y="1186" type="line"/>
      <point x="392" y="1186"/>
      <point x="390" y="1188"/>
      <point x="396" y="1188" type="curve" smooth="yes"/>
      <point x="402" y="1188" type="line" smooth="yes"/>
      <point x="430" y="1188"/>
      <point x="453" y="1170"/>
      <point x="453" y="1141" type="curve"/>
      <point x="474" y="952" type="line"/>
      <point x="555" y="1088"/>
      <point x="752" y="1188"/>
      <point x="968" y="1188" type="curve" smooth="yes"/>
      <point x="1170" y="1188"/>
      <point x="1313" y="1084"/>
      <point x="1369" y="934" type="curve"/>
      <point x="1462" y="1068"/>
      <point x="1629" y="1188"/>
    </contour>
  </outline>
</glyph>
<glyph name="n" format="1">
  <advance width="1543"/>
  <unicode hex="006E"/>
  <outline>
    <contour>
      <point x="869" y="1018" type="curve" smooth="yes"/>
      <point x="690" y="1018"/>
      <point x="494" y="886"/>
      <point x="494" y="707" type="curve" smooth="yes"/>
      <point x="494" y="176" type="line"/>
      <point x="640" y="176" type="line" smooth="yes"/>
      <point x="691" y="176"/>
      <point x="711" y="134"/>
      <point x="711" y="84" type="curve" smooth="yes"/>
      <point x="711" y="40"/>
      <point x="685" y="0"/>
      <point x="638" y="0" type="curve" smooth="yes"/>
      <point x="171" y="0" type="line" smooth="yes"/>
      <point x="115" y="0"/>
      <point x="89" y="35"/>
      <point x="89" y="86" type="curve" smooth="yes"/>
      <point x="89" y="135"/>
      <point x="113" y="176"/>
      <point x="165" y="176" type="curve" smooth="yes"/>
      <point x="289" y="176" type="line"/>
      <point x="289" y="979" type="line"/>
      <point x="146" y="944" type="line" smooth="yes"/>
      <point x="143" y="943"/>
      <point x="139" y="942"/>
      <point x="132" y="942" type="curve" smooth="yes"/>
      <point x="92" y="942"/>
      <point x="50" y="981"/>
      <point x="50" y="1022" type="curve" smooth="yes"/>
      <point x="50" y="1067"/>
      <point x="69" y="1094"/>
      <point x="107" y="1106" type="curve"/>
      <point x="386" y="1186" type="line"/>
      <point x="392" y="1186"/>
      <point x="390" y="1188"/>
      <point x="396" y="1188" type="curve" smooth="yes"/>
      <point x="402" y="1188" type="line" smooth="yes"/>
      <point x="430" y="1188"/>
      <point x="453" y="1170"/>
      <point x="453" y="1141" type="curve"/>
      <point x="474" y="952" type="line"/>
      <point x="542" y="1075"/>
      <point x="718" y="1188"/>
      <point x="906" y="1188" type="curve" smooth="yes"/>
      <point x="1156" y="1188"/>
      <point x="1313" y="1032"/>
      <point x="1313" y="780" type="curve" smooth="yes"/>
      <point x="1313" y="176" type="line"/>
      <point x="1438" y="176" type="line" smooth="yes"/>
      <point x="1489" y="176"/>
      <point x="1510" y="134"/>
      <point x="1510" y="84" type="curve" smooth="yes"/>
      <point x="1510" y="40"/>
      <point x="1483" y="0"/>
      <point x="1436" y="0" type="curve" smooth="yes"/>
      <point x="949" y="0" type="line" smooth="yes"/>
      <point x="893" y="0"/>
      <point x="867" y="35"/>
      <point x="867" y="86" type="curve" smooth="yes"/>
      <point x="867" y="135"/>
      <point x="891" y="176"/>
      <point x="943" y="176" type="curve" smooth="yes"/>
      <point x="1111" y="176" type="line"/>
      <point x="1111" y="762" type="line" smooth="yes"/>
      <point x="1111" y="922"/>
      <point x="1031" y="1018"/>
    </contour>
  </outline>
</glyph>
<glyph name="o" format="1">
  <advance width="1369"/>
  <unicode hex="006F"/>
  <outline>
    <contour>
      <point x="691" y="1018" type="curve" smooth="yes"/>
      <point x="437" y="1018"/>
      <point x="292" y="836"/>
      <point x="292" y="582" type="curve" smooth="yes"/>
      <point x="292" y="326"/>
      <point x="437" y="145"/>
      <point x="691" y="145" type="curve" smooth="yes"/>
      <point x="939" y="145"/>
      <point x="1078" y="332"/>
      <point x="1078" y="582" type="curve" smooth="yes"/>
      <point x="1078" y="833"/>
      <point x="939" y="1018"/>
    </contour>
    <contour>
      <point x="691" y="-25" type="curve" smooth="yes"/>
      <point x="320" y="-25"/>
      <point x="70" y="211"/>
      <point x="70" y="582" type="curve" smooth="yes"/>
      <point x="70" y="955"/>
      <point x="321" y="1188"/>
      <point x="691" y="1188" type="curve" smooth="yes"/>
      <point x="1056" y="1188"/>
      <point x="1299" y="948"/>
      <point x="1299" y="582" type="curve" smooth="yes"/>
      <point x="1299" y="216"/>
      <point x="1055" y="-25"/>
    </contour>
  </outline>
</glyph>
<glyph name="r" format="1">
  <advance width="1114"/>
  <unicode hex="0072"/>
  <outline>
    <contour>
      <point x="884" y="1006" type="line"/>
      <point x="723" y="1006"/>
      <point x="592" y="925"/>
      <point x="527" y="827" type="curve"/>
      <point x="527" y="176" type="line"/>
      <point x="795" y="176" type="line" smooth="yes"/>
      <point x="846" y="176"/>
      <point x="867" y="134"/>
      <point x="867" y="84" type="curve" smooth="yes"/>
      <point x="867" y="40"/>
      <point x="840" y="0"/>
      <point x="793" y="0" type="curve" smooth="yes"/>
      <point x="132" y="0" type="line" smooth="yes"/>
      <point x="76" y="0"/>
      <point x="50" y="35"/>
      <point x="50" y="86" type="curve" smooth="yes"/>
      <point x="50" y="135"/>
      <point x="74" y="176"/>
      <point x="126" y="176" type="curve" smooth="yes"/>
      <point x="322" y="176" type="line"/>
      <point x="322" y="979" type="line"/>
      <point x="179" y="944" type="line" smooth="yes"/>
      <point x="176" y="943"/>
      <point x="172" y="942"/>
      <point x="165" y="942" type="curve" smooth="yes"/>
      <point x="125" y="942"/>
      <point x="83" y="981"/>
      <point x="83" y="1022" type="curve" smooth="yes"/>
      <point x="83" y="1067"/>
      <point x="102" y="1094"/>
      <point x="140" y="1106" type="curve"/>
      <point x="419" y="1186" type="line"/>
      <point x="425" y="1186"/>
      <point x="423" y="1188"/>
      <point x="429" y="1188" type="curve" smooth="yes"/>
      <point x="435" y="1188" type="line" smooth="yes"/>
      <point x="463" y="1188"/>
      <point x="486" y="1170"/>
      <point x="486" y="1141" type="curve"/>
      <point x="507" y="952" type="line"/>
      <point x="599" y="1093"/>
      <point x="742" y="1188"/>
      <point x="976" y="1188" type="curve" smooth="yes"/>
      <point x="1020" y="1188"/>
      <point x="1060" y="1161"/>
      <point x="1060" y="1114" type="curve" smooth="yes"/>
      <point x="1060" y="901" type="line" smooth="yes"/>
      <point x="1060" y="845"/>
      <point x="1025" y="819"/>
      <point x="974" y="819" type="curve" smooth="yes"/>
      <point x="925" y="819"/>
      <point x="884" y="843"/>
      <point x="884" y="895" type="curve" smooth="yes"/>
    </contour>
  </outline>
</glyph>
<glyph name="s" format="1">
  <advance width="1234"/>
  <unicode hex="0073"/>
  <outline>
    <contour>
      <point x="157" y="861" type="curve" smooth="yes"/>
      <point x="157" y="1120"/>
      <point x="379" y="1188"/>
      <point x="590" y="1188" type="curve" smooth="yes"/>
      <point x="727" y="1188"/>
      <point x="880" y="1126"/>
      <point x="929" y="1037" type="curve"/>
      <point x="930" y="1122" type="line" smooth="yes"/>
      <point x="930" y="1163"/>
      <point x="964" y="1190"/>
      <point x="1005" y="1190" type="curve" smooth="yes"/>
      <point x="1064" y="1190"/>
      <point x="1093" y="1163"/>
      <point x="1093" y="1112" type="curve" smooth="yes"/>
      <point x="1089" y="823" type="line"/>
      <point x="1084" y="778"/>
      <point x="1053" y="754"/>
      <point x="1007" y="754" type="curve" smooth="yes"/>
      <point x="963" y="754"/>
      <point x="955" y="782"/>
      <point x="942" y="831" type="curve"/>
      <point x="897" y="972"/>
      <point x="731" y="1048"/>
      <point x="588" y="1048" type="curve" smooth="yes"/>
      <point x="465" y="1048"/>
      <point x="358" y="1001"/>
      <point x="358" y="903" type="curve" smooth="yes"/>
      <point x="358" y="818"/>
      <point x="409" y="778"/>
      <point x="532" y="747" type="curve"/>
      <point x="788" y="663" type="line" smooth="yes"/>
      <point x="968" y="603"/>
      <point x="1140" y="537"/>
      <point x="1140" y="311" type="curve" smooth="yes"/>
      <point x="1140" y="88"/>
      <point x="983" y="-27"/>
      <point x="708" y="-27" type="curve" smooth="yes"/>
      <point x="564" y="-27"/>
      <point x="364" y="21"/>
      <point x="288" y="105" type="curve"/>
      <point x="288" y="16"/>
      <point x="252" y="0"/>
      <point x="207" y="0" type="curve" smooth="yes"/>
      <point x="156" y="0"/>
      <point x="118" y="20"/>
      <point x="118" y="74" type="curve" smooth="yes"/>
      <point x="118" y="412" type="line"/>
      <point x="120" y="453"/>
      <point x="155" y="475"/>
      <point x="194" y="475" type="curve" smooth="yes"/>
      <point x="253" y="475"/>
      <point x="270" y="447"/>
      <point x="282" y="395" type="curve" smooth="yes"/>
      <point x="323" y="213"/>
      <point x="482" y="123"/>
      <point x="697" y="123" type="curve" smooth="yes"/>
      <point x="827" y="123"/>
      <point x="933" y="168"/>
      <point x="933" y="281" type="curve" smooth="yes"/>
      <point x="933" y="394"/>
      <point x="888" y="432"/>
      <point x="751" y="474" type="curve" smooth="yes"/>
      <point x="479" y="559" type="line" smooth="yes"/>
      <point x="309" y="613"/>
      <point x="157" y="687"/>
    </contour>
  </outline>
</glyph>
<glyph name="t" format="1">
  <advance width="890"/>
  <unicode hex="0074"/>
  <outline>
    <contour>
      <point x="572" y="134" type="curve" smooth="yes"/>
      <point x="701" y="134"/>
      <point x="705" y="242"/>
      <point x="781" y="242" type="curve" smooth="yes"/>
      <point x="823" y="242"/>
      <point x="853" y="208"/>
      <point x="853" y="166" type="curve" smooth="yes"/>
      <point x="853" y="47"/>
      <point x="673" y="-27"/>
      <point x="538" y="-27" type="curve" smooth="yes"/>
      <point x="381" y="-27"/>
      <point x="245" y="100"/>
      <point x="245" y="248" type="curve" smooth="yes"/>
      <point x="245" y="956" type="line"/>
      <point x="95" y="956" type="line" smooth="yes"/>
      <point x="39" y="956"/>
      <point x="13" y="991"/>
      <point x="13" y="1042" type="curve" smooth="yes"/>
      <point x="13" y="1091"/>
      <point x="37" y="1133"/>
      <point x="89" y="1133" type="curve" smooth="yes"/>
      <point x="245" y="1133" type="line"/>
      <point x="245" y="1255"/>
      <point x="248" y="1528"/>
      <point x="363" y="1528" type="curve" smooth="yes"/>
      <point x="396" y="1528"/>
      <point x="419" y="1520"/>
      <point x="443" y="1503" type="curve"/>
      <point x="443" y="1483" type="line" smooth="yes"/>
      <point x="443" y="1465"/>
      <point x="445" y="1442"/>
      <point x="445" y="1424" type="curve" smooth="yes"/>
      <point x="445" y="1133" type="line"/>
      <point x="707" y="1133" type="line" smooth="yes"/>
      <point x="758" y="1133"/>
      <point x="779" y="1090"/>
      <point x="779" y="1040" type="curve" smooth="yes"/>
      <point x="779" y="996"/>
      <point x="752" y="956"/>
      <point x="705" y="956" type="curve" smooth="yes"/>
      <point x="445" y="956" type="line"/>
      <point x="445" y="279" type="line" smooth="yes"/>
      <point x="445" y="174"/>
      <point x="498" y="134"/>
    </contour>
  </outline>
</glyph>
<glyph name="w" format="1">
  <advance width="1987"/>
  <unicode hex="0077"/>
  <outline>
    <contour>
      <point x="1292" y="1049" type="curve" smooth="yes"/>
      <point x="1292" y="999"/>
      <point x="1271" y="956"/>
      <point x="1220" y="956" type="curve" smooth="yes"/>
      <point x="1058" y="956" type="line"/>
      <point x="1363" y="299" type="line"/>
      <point x="1662" y="956" type="line"/>
      <point x="1562" y="956" type="line" smooth="yes"/>
      <point x="1511" y="956"/>
      <point x="1490" y="999"/>
      <point x="1490" y="1049" type="curve" smooth="yes"/>
      <point x="1490" y="1093"/>
      <point x="1517" y="1133"/>
      <point x="1564" y="1133" type="curve" smooth="yes"/>
      <point x="1910" y="1133" type="line" smooth="yes"/>
      <point x="1966" y="1133"/>
      <point x="1992" y="1098"/>
      <point x="1992" y="1047" type="curve" smooth="yes"/>
      <point x="1992" y="998"/>
      <point x="1968" y="956"/>
      <point x="1916" y="956" type="curve" smooth="yes"/>
      <point x="1814" y="956" type="line"/>
      <point x="1441" y="117" type="line" smooth="yes"/>
      <point x="1418" y="66"/>
      <point x="1392" y="-2"/>
      <point x="1343" y="-2" type="curve" smooth="yes"/>
      <point x="1297" y="-2"/>
      <point x="1260" y="79"/>
      <point x="1238" y="125" type="curve" smooth="yes"/>
      <point x="1003" y="608" type="line"/>
      <point x="784" y="117" type="line" smooth="yes"/>
      <point x="751" y="42"/>
      <point x="715" y="4"/>
      <point x="677" y="4" type="curve" smooth="yes"/>
      <point x="640" y="4"/>
      <point x="602" y="44"/>
      <point x="562" y="125" type="curve" smooth="yes"/>
      <point x="155" y="956" type="line"/>
      <point x="71" y="956" type="line" smooth="yes"/>
      <point x="19" y="956"/>
      <point x="-5" y="997"/>
      <point x="-5" y="1047" type="curve" smooth="yes"/>
      <point x="-5" y="1098"/>
      <point x="21" y="1133"/>
      <point x="77" y="1133" type="curve" smooth="yes"/>
      <point x="458" y="1133" type="line" smooth="yes"/>
      <point x="505" y="1133"/>
      <point x="532" y="1093"/>
      <point x="532" y="1049" type="curve" smooth="yes"/>
      <point x="532" y="999"/>
      <point x="511" y="956"/>
      <point x="460" y="956" type="curve" smooth="yes"/>
      <point x="380" y="956" type="line"/>
      <point x="706" y="299" type="line"/>
      <point x="921" y="774" type="line"/>
      <point x="833" y="956" type="line"/>
      <point x="769" y="956" type="line" smooth="yes"/>
      <point x="717" y="956"/>
      <point x="694" y="997"/>
      <point x="694" y="1047" type="curve" smooth="yes"/>
      <point x="694" y="1098"/>
      <point x="719" y="1133"/>
      <point x="775" y="1133" type="curve" smooth="yes"/>
      <point x="1218" y="1133" type="line" smooth="yes"/>
      <point x="1265" y="1133"/>
      <point x="1292" y="1093"/>
    </contour>
  </outline>
</glyph>
<glyph name="y" format="1">
  <advance width="1384"/>
  <unicode hex="0079"/>
  <outline>
    <contour>
      <point x="598" y="1049" type="curve" smooth="yes"/>
      <point x="598" y="999"/>
      <point x="577" y="956"/>
      <point x="526" y="956" type="curve" smooth="yes"/>
      <point x="406" y="956" type="line"/>
      <point x="754" y="209" type="line"/>
      <point x="1030" y="956" type="line"/>
      <point x="914" y="956" type="line" smooth="yes"/>
      <point x="863" y="956"/>
      <point x="842" y="999"/>
      <point x="842" y="1049" type="curve" smooth="yes"/>
      <point x="842" y="1093"/>
      <point x="869" y="1133"/>
      <point x="916" y="1133" type="curve" smooth="yes"/>
      <point x="1319" y="1133" type="line" smooth="yes"/>
      <point x="1376" y="1133"/>
      <point x="1401" y="1098"/>
      <point x="1401" y="1047" type="curve" smooth="yes"/>
      <point x="1401" y="998"/>
      <point x="1377" y="956"/>
      <point x="1325" y="956" type="curve" smooth="yes"/>
      <point x="1208" y="956" type="line"/>
      <point x="793" y="-121" type="line"/>
      <point x="721" y="-291"/>
      <point x="620" y="-590"/>
      <point x="367" y="-590" type="curve" smooth="yes"/>
      <point x="286" y="-590"/>
      <point x="240" y="-538"/>
      <point x="240" y="-484" type="curve" smooth="yes"/>
      <point x="240" y="-434"/>
      <point x="269" y="-370"/>
      <point x="355" y="-368" type="curve"/>
      <point x="467" y="-368"/>
      <point x="550" y="-273"/>
      <point x="594" y="-166" type="curve"/>
      <point x="658" y="-6" type="line"/>
      <point x="651" y="-6"/>
      <point x="614" y="72"/>
      <point x="608" y="84" type="curve" smooth="yes"/>
      <point x="180" y="956" type="line"/>
      <point x="59" y="956" type="line" smooth="yes"/>
      <point x="7" y="956"/>
      <point x="-16" y="997"/>
      <point x="-16" y="1047" type="curve" smooth="yes"/>
      <point x="-16" y="1098"/>
      <point x="10" y="1133"/>
      <point x="66" y="1133" type="curve" smooth="yes"/>
      <point x="524" y="1133" type="line" smooth="yes"/>
      <point x="571" y="1133"/>
      <point x="598" y="1093"/>
    </contour>
  </outline>
</glyph>
<glyph name="ordfeminine" format="1">
  <advance width="1366"/>
  <unicode hex="00AA"/>
  <outline>
    <contour>
      <point x="1122" y="558" type="curve" smooth="yes"/>
      <point x="1122" y="492"/>
      <point x="1006" y="439"/>
      <point x="949" y="439" type="curve" smooth="yes"/>
      <point x="882" y="439"/>
      <point x="841" y="472"/>
      <point x="826" y="539" type="curve"/>
      <point x="766" y="469"/>
      <point x="664" y="437"/>
      <point x="553" y="437" type="curve" smooth="yes"/>
      <point x="427" y="437"/>
      <point x="332" y="521"/>
      <point x="332" y="645" type="curve" smooth="yes"/>
      <point x="332" y="866"/>
      <point x="603" y="879"/>
      <point x="810" y="897" type="curve"/>
      <point x="810" y="997" type="line" smooth="yes"/>
      <point x="810" y="1062"/>
      <point x="743" y="1083"/>
      <point x="679" y="1083" type="curve" smooth="yes"/>
      <point x="564" y="1083"/>
      <point x="523" y="1059"/>
      <point x="445" y="1009" type="curve" smooth="yes"/>
      <point x="437" y="1004"/>
      <point x="430" y="1001"/>
      <point x="423" y="1001" type="curve" smooth="yes"/>
      <point x="395" y="1001"/>
      <point x="369" y="1034"/>
      <point x="369" y="1063" type="curve" smooth="yes"/>
      <point x="369" y="1162"/>
      <point x="559" y="1188"/>
      <point x="662" y="1188" type="curve" smooth="yes"/>
      <point x="871" y="1188"/>
      <point x="933" y="1108"/>
      <point x="933" y="901" type="curve" smooth="yes"/>
      <point x="933" y="590" type="line" smooth="yes"/>
      <point x="933" y="564"/>
      <point x="941" y="546"/>
      <point x="960" y="546" type="curve" smooth="yes"/>
      <point x="996" y="546"/>
      <point x="1049" y="612"/>
      <point x="1079" y="612" type="curve" smooth="yes"/>
      <point x="1097" y="612"/>
      <point x="1122" y="581"/>
    </contour>
    <contour>
      <point x="810" y="804" type="line"/>
      <point x="679" y="791"/>
      <point x="464" y="786"/>
      <point x="464" y="648" type="curve" smooth="yes"/>
      <point x="464" y="578"/>
      <point x="525" y="545"/>
      <point x="596" y="545" type="curve" smooth="yes"/>
      <point x="682" y="545"/>
      <point x="753" y="580"/>
      <point x="810" y="625" type="curve"/>
    </contour>
  </outline>
</glyph>
<glyph name="logicalnot" format="1">
  <advance width="1291"/>
  <unicode hex="00AC"/>
  <outline>
    <contour>
      <point x="171" y="715" type="curve" smooth="yes"/>
      <point x="171" y="770"/>
      <point x="217" y="817"/>
      <point x="273" y="817" type="curve" smooth="yes"/>
      <point x="1015" y="817" type="line" smooth="yes"/>
      <point x="1071" y="817"/>
      <point x="1117" y="770"/>
      <point x="1117" y="715" type="curve" smooth="yes"/>
      <point x="1117" y="711" type="line" smooth="yes"/>
      <point x="1117" y="409" type="line" smooth="yes"/>
      <point x="1117" y="353"/>
      <point x="1077" y="326"/>
      <point x="1038" y="326" type="curve" smooth="yes"/>
      <point x="999" y="326"/>
      <point x="961" y="352"/>
      <point x="961" y="403" type="curve" smooth="yes"/>
      <point x="961" y="612" type="line"/>
      <point x="273" y="612" type="line" smooth="yes"/>
      <point x="216" y="612"/>
      <point x="171" y="658"/>
    </contour>
  </outline>
</glyph>
<glyph name="macron" format="1">
  <advance width="958"/>
  <unicode hex="00AF"/>
  <outline>
    <contour>
      <point x="782" y="966" type="curve" smooth="yes"/>
      <point x="252" y="966" type="line" smooth="yes"/>
      <point x="197" y="966"/>
      <point x="170" y="1006"/>
      <point x="170" y="1045" type="curve" smooth="yes"/>
      <point x="170" y="1084"/>
      <point x="196" y="1122"/>
      <point x="246" y="1122" type="curve" smooth="yes"/>
      <point x="784" y="1122" type="line" smooth="yes"/>
      <point x="832" y="1122"/>
      <point x="856" y="1084"/>
      <point x="856" y="1045" type="curve" smooth="yes"/>
      <point x="856" y="1006"/>
      <point x="831" y="966"/>
    </contour>
  </outline>
</glyph>
<glyph name="periodcentered" format="1">
  <advance width="477"/>
  <unicode hex="00B7"/>
  <outline>
    <contour>
      <point x="233" y="711" type="curve" smooth="yes"/>
      <point x="111" y="711"/>
      <point x="22" y="801"/>
      <point x="22" y="922" type="curve" smooth="yes"/>
      <point x="22" y="1044"/>
      <point x="112" y="1133"/>
      <point x="233" y="1133" type="curve" smooth="yes"/>
      <point x="355" y="1133"/>
      <point x="444" y="1043"/>
      <point x="444" y="922" type="curve" smooth="yes"/>
      <point x="444" y="800"/>
      <point x="354" y="711"/>
    </contour>
  </outline>
</glyph>
<glyph name="ordmasculine" format="1">
  <advance width="1363"/>
  <unicode hex="00BA"/>
  <outline>
    <contour>
      <point x="755" y="1075" type="curve" smooth="yes"/>
      <point x="587" y="1075"/>
      <point x="491" y="955"/>
      <point x="491" y="787" type="curve" smooth="yes"/>
      <point x="491" y="617"/>
      <point x="587" y="497"/>
      <point x="755" y="497" type="curve" smooth="yes"/>
      <point x="920" y="497"/>
      <point x="1012" y="621"/>
      <point x="1012" y="787" type="curve" smooth="yes"/>
      <point x="1012" y="953"/>
      <point x="920" y="1075"/>
    </contour>
    <contour>
      <point x="755" y="384" type="curve" smooth="yes"/>
      <point x="510" y="384"/>
      <point x="344" y="541"/>
      <point x="344" y="787" type="curve" smooth="yes"/>
      <point x="344" y="1034"/>
      <point x="510" y="1188"/>
      <point x="755" y="1188" type="curve" smooth="yes"/>
      <point x="997" y="1188"/>
      <point x="1158" y="1029"/>
      <point x="1158" y="787" type="curve" smooth="yes"/>
      <point x="1158" y="544"/>
      <point x="997" y="384"/>
    </contour>
  </outline>
</glyph>
<glyph name="Eth" format="1">
  <advance width="1878"/>
  <unicode hex="00D0"/>
  <outline>
    <contour>
      <point x="1872" y="866" type="curve" smooth="yes"/>
      <point x="1872" y="301"/>
      <point x="1460" y="0"/>
      <point x="893" y="0" type="curve" smooth="yes"/>
      <point x="135" y="0" type="line" smooth="yes"/>
      <point x="88" y="0"/>
      <point x="61" y="40"/>
      <point x="61" y="84" type="curve" smooth="yes"/>
      <point x="61" y="134"/>
      <point x="82" y="176"/>
      <point x="133" y="176" type="curve" smooth="yes"/>
      <point x="401" y="176" type="line"/>
      <point x="401" y="809" type="line"/>
      <point x="252" y="809" type="line" smooth="yes"/>
      <point x="197" y="809"/>
      <point x="170" y="849"/>
      <point x="170" y="888" type="curve" smooth="yes"/>
      <point x="170" y="927"/>
      <point x="196" y="965"/>
      <point x="246" y="965" type="curve" smooth="yes"/>
      <point x="401" y="965" type="line"/>
      <point x="401" y="1538" type="line"/>
      <point x="198" y="1538" type="line" smooth="yes"/>
      <point x="147" y="1538"/>
      <point x="127" y="1580"/>
      <point x="127" y="1630" type="curve" smooth="yes"/>
      <point x="127" y="1674"/>
      <point x="154" y="1714"/>
      <point x="201" y="1714" type="curve" smooth="yes"/>
      <point x="893" y="1714" type="line" smooth="yes"/>
      <point x="1472" y="1714"/>
      <point x="1872" y="1438"/>
    </contour>
    <contour>
      <point x="1630" y="866" type="curve" smooth="yes"/>
      <point x="1630" y="1297"/>
      <point x="1355" y="1538"/>
      <point x="921" y="1538" type="curve" smooth="yes"/>
      <point x="635" y="1538" type="line"/>
      <point x="635" y="965" type="line"/>
      <point x="888" y="965" type="line" smooth="yes"/>
      <point x="936" y="965"/>
      <point x="960" y="927"/>
      <point x="960" y="888" type="curve" smooth="yes"/>
      <point x="960" y="849"/>
      <point x="935" y="809"/>
      <point x="886" y="809" type="curve" smooth="yes"/>
      <point x="635" y="809" type="line"/>
      <point x="635" y="176" type="line"/>
      <point x="682" y="173"/>
      <point x="727" y="172"/>
      <point x="772" y="172" type="curve" smooth="yes"/>
      <point x="1280" y="172"/>
      <point x="1630" y="346"/>
    </contour>
  </outline>
</glyph>
<glyph name="breve" format="1">
  <advance width="654"/>
  <unicode hex="02D8"/>
  <outline>
    <contour>
      <point x="88" y="1879" type="curve" smooth="yes"/>
      <point x="134" y="1759"/>
      <point x="215" y="1699"/>
      <point x="296" y="1699" type="curve" smooth="yes"/>
      <point x="377" y="1699"/>
      <point x="458" y="1759"/>
      <point x="504" y="1879" type="curve" smooth="yes"/>
      <point x="510" y="1895"/>
      <point x="524" y="1900"/>
      <point x="537" y="1900" type="curve" smooth="yes"/>
      <point x="563" y="1900"/>
      <point x="592" y="1875"/>
      <point x="592" y="1853" type="curve" smooth="yes"/>
      <point x="592" y="1642"/>
      <point x="444" y="1536"/>
      <point x="296" y="1536" type="curve" smooth="yes"/>
      <point x="148" y="1536"/>
      <point x="0" y="1642"/>
      <point x="0" y="1853" type="curve" smooth="yes"/>
      <point x="0" y="1875"/>
      <point x="29" y="1900"/>
      <point x="55" y="1900" type="curve" smooth="yes"/>
      <point x="68" y="1900"/>
      <point x="82" y="1895"/>
    </contour>
  </outline>
</glyph>
<glyph name="ring" format="1">
  <advance width="352"/>
  <unicode hex="02DA"/>
  <outline>
    <contour>
      <point x="158" y="1288" type="curve" smooth="yes"/>
      <point x="323" y="1288"/>
      <point x="405" y="1164"/>
      <point x="405" y="1040" type="curve" smooth="yes"/>
      <point x="405" y="916"/>
      <point x="319" y="790"/>
      <point x="153" y="790" type="curve" smooth="yes"/>
      <point x="-13" y="790"/>
      <point x="-97" y="912"/>
      <point x="-97" y="1035" type="curve" smooth="yes"/>
      <point x="-97" y="1161"/>
      <point x="-9" y="1288"/>
    </contour>
    <contour>
      <point x="161" y="885" type="curve" smooth="yes"/>
      <point x="255" y="885"/>
      <point x="299" y="955"/>
      <point x="299" y="1037" type="curve" smooth="yes"/>
      <point x="299" y="1119"/>
      <point x="252" y="1191"/>
      <point x="157" y="1191" type="curve" smooth="yes"/>
      <point x="61" y="1191"/>
      <point x="15" y="1119"/>
      <point x="15" y="1037" type="curve" smooth="yes"/>
      <point x="15" y="956"/>
      <point x="69" y="885"/>
    </contour>
  </outline>
</glyph>
<glyph name="tilde" format="1">
  <advance width="1143"/>
  <unicode hex="02DC"/>
  <outline>
    <contour>
      <point x="141" y="1065" type="curve" smooth="yes"/>
      <point x="141" y="1220"/>
      <point x="225" y="1330"/>
      <point x="331" y="1330" type="curve" smooth="yes"/>
      <point x="486" y="1330"/>
      <point x="602" y="1188"/>
      <point x="658" y="1188" type="curve" smooth="yes"/>
      <point x="747" y="1188"/>
      <point x="750" y="1330"/>
      <point x="799" y="1330" type="curve" smooth="yes"/>
      <point x="838" y="1330"/>
      <point x="872" y="1312"/>
      <point x="872" y="1276" type="curve" smooth="yes"/>
      <point x="872" y="1121"/>
      <point x="772" y="1012"/>
      <point x="646" y="1012" type="curve" smooth="yes"/>
      <point x="530" y="1012"/>
      <point x="417" y="1153"/>
      <point x="340" y="1153" type="curve" smooth="yes"/>
      <point x="255" y="1153"/>
      <point x="255" y="1012"/>
      <point x="214" y="1012" type="curve" smooth="yes"/>
      <point x="175" y="1012"/>
      <point x="141" y="1029"/>
    </contour>
  </outline>
</glyph>
<glyph name="quotesinglbase" format="1">
  <advance width="501"/>
  <unicode hex="201A"/>
  <outline>
    <contour>
      <point x="81" y="1099" type="curve" smooth="yes"/>
      <point x="40" y="1099"/>
      <point x="20" y="1127"/>
      <point x="20" y="1162" type="curve" smooth="yes"/>
      <point x="20" y="1290"/>
      <point x="304" y="1213"/>
      <point x="304" y="1401" type="curve"/>
      <point x="274" y="1391"/>
      <point x="246" y="1387"/>
      <point x="220" y="1387" type="curve" smooth="yes"/>
      <point x="117" y="1387"/>
      <point x="58" y="1460"/>
      <point x="58" y="1524" type="curve" smooth="yes"/>
      <point x="58" y="1638"/>
      <point x="136" y="1707"/>
      <point x="279" y="1707" type="curve" smooth="yes"/>
      <point x="404" y="1707"/>
      <point x="467" y="1605"/>
      <point x="467" y="1483" type="curve" smooth="yes"/>
      <point x="467" y="1266"/>
      <point x="320" y="1099"/>
    </contour>
  </outline>
</glyph>
<glyph name="bullet" format="1">
  <advance width="1143"/>
  <unicode hex="2022"/>
  <outline>
    <contour>
      <point x="551" y="289" type="curve" smooth="yes"/>
      <point x="334" y="289"/>
      <point x="193" y="427"/>
      <point x="193" y="643" type="curve" smooth="yes"/>
      <point x="193" y="860"/>
      <point x="335" y="997"/>
      <point x="551" y="997" type="curve" smooth="yes"/>
      <point x="761" y="997"/>
      <point x="898" y="853"/>
      <point x="898" y="643" type="curve" smooth="yes"/>
      <point x="898" y="432"/>
      <point x="760" y="289"/>
    </contour>
  </outline>
</glyph>
